<?xml version="1.0" encoding="utf-8"?>
<!-- Generator: Adobe Illustrator 21.1.0, SVG Export Plug-In . SVG Version: 6.00 Build 0)  -->
<svg version="1.1" id="圖層_1" xmlns="http://www.w3.org/2000/svg" xmlns:xlink="http://www.w3.org/1999/xlink" x="0px" y="0px"
	 viewBox="0 0 209.8 102" enable-background="new 0 0 209.8 102" xml:space="preserve">
<g>
	
		<image overflow="visible" width="626" height="188" xlink:href="2F6E3939.jpg"  transform="matrix(1.0108 0 0 -1.0102 -661.0349 147.6633)">
	</image>
</g>
<path id="u_2_" fill="#6C6C6C" d="M79,83h-7.7v-4.5c-2.9,3.4-5.4,5.1-8.1,5.1c-2.4,0-4-1.1-4.9-3.1c-0.5-1.2-0.9-3.2-0.9-6V41.9h7.7
	v30.5c0,1.7,0,2.4,0,2.8c0.2,1.1,0.7,1.6,1.6,1.6c1.5,0,2.8-1.3,4.5-3.6V41.9H79V83z"/>
<path id="o_2_" fill="#6C6C6C" d="M51.8,55.3c0-4.4-0.9-7.7-2.4-9.8c-2.1-2.8-5.3-4-8.5-4c-3.7,0-6.5,1.2-8.5,4
	c-1.6,2.1-2.4,5.4-2.4,9.8l0,14.6c0,4.4,0.8,7.4,2.3,9.4c2.1,2.8,5.4,4.3,8.6,4.3s6.6-1.5,8.7-4.3c1.6-2.1,2.3-5.1,2.3-9.4V55.3z
	 M44.1,70.8c0.4,4.1-0.9,6.1-3.3,6.1s-3.7-2-3.3-6.1V54.5c-0.4-4.1,0.9-6,3.3-6c2.4,0,3.7,1.9,3.3,6L44.1,70.8z"/>
<path id="y_2_" fill="#6C6C6C" d="M21.3,60.6V83h-8.1V60.6c0,0-8.4-27.4-10.2-32.5h8.5l5.7,21.4l5.7-21.4h8.5L21.3,60.6z"/>
<g>
	<path fill="#6C6C6C" d="M188.9,53.3c0-3.8-1-4.9-3.4-4.9c-2.5,0-3.5,1-3.5,4.8v4.5l6.9,0V53.3z"/>
	<path fill="#6C6C6C" d="M158.5,48.4c-1.2,0-2.6,0.6-3.8,1.9l0,24.7c1.2,1.2,2.6,1.9,3.8,1.9c2.1,0,3.1-1.6,3.1-5.6V53.7
		C161.6,49.6,160.7,48.4,158.5,48.4z"/>
	<path fill="#6C6C6C" d="M205.6,32.5c0,0-1.2-8.3-4.8-12c-4.6-4.8-9.8-4.8-12.2-5.1c-17-1.2-42.5-1.2-42.5-1.2H146
		c0,0-25.5,0-42.5,1.2c-2.4,0.3-7.6,0.3-12.2,5.1c-3.6,3.7-4.8,12-4.8,12s-1.2,9.8-1.2,19.6v9.2c0,9.8,1.2,19.6,1.2,19.6
		s1.2,8.3,4.8,12c4.6,4.8,10.7,4.7,13.4,5.2c9.7,0.9,41.3,1.2,41.3,1.2s25.5,0,42.5-1.3c2.4-0.3,7.6-0.3,12.2-5.1
		c3.6-3.7,4.8-12,4.8-12s1.2-9.8,1.2-19.6v-9.2C206.8,42.3,205.6,32.5,205.6,32.5z M112,83h-8.1V36.2h-8.5v-7.7l25.6,0v7.7H112V83z
		 M141.3,83h-7.7v-4.5c-2.9,3.4-5.4,5.1-8.1,5.1c-2.4,0-4-1.1-4.9-3.1c-0.5-1.2-0.9-3.2-0.9-6V42.3h7.7v30.1c0,1.7,0,2.4,0,2.8
		c0.2,1.1,0.7,1.6,1.6,1.6c1.5,0,2.8-1.3,4.5-3.6V42.3h7.7V83z M169.3,70.8c0,3.8-0.3,6.4-0.8,8.1c-1,3-3.1,4.6-6.1,4.6
		c-2.6,0-5.3-1.6-7.8-4.6l0,4.1h-7.3V28.5h7.3l0,17.8c2.4-2.9,5.1-4.6,7.8-4.6c2.9,0,4.9,1.7,5.9,4.7c0.5,1.6,1,4.3,1,8.1V70.8z
		 M185.5,76.8c1.8,0,2.9-1,3.3-3c0.1-0.4,0.1-2.2,0.1-5.1h7.7v1.2c0,2.4-0.2,4.1-0.3,4.8c-0.2,1.6-0.8,3.1-1.7,4.4
		c-2,3-5.1,4.4-8.9,4.4c-3.9,0-6.8-1.4-8.9-4.2c-1.6-2-2.6-5.1-2.6-9.4V55.7c0-4.3,0.9-7.7,2.5-9.8c2.1-2.8,5.1-4.3,8.8-4.3
		c3.7,0,6.6,1.5,8.7,4.3c1.5,2.1,2.4,5.2,2.4,9.6l0,8.3H182v7.3C181.9,74.9,183,76.8,185.5,76.8z"/>
</g>
</svg>
