<?xml version="1.0" encoding="utf-8"?>
<!-- Generator: Adobe Illustrator 21.1.0, SVG Export Plug-In . SVG Version: 6.00 Build 0)  -->
<svg version="1.1" id="圖層_1" xmlns="http://www.w3.org/2000/svg" xmlns:xlink="http://www.w3.org/1999/xlink" x="0px" y="0px"
	 viewBox="0 0 73.7 102" enable-background="new 0 0 73.7 102" xml:space="preserve">
<g>
	
		<image overflow="visible" width="626" height="188" xlink:href="3287E671.jpg"  transform="matrix(1.0108 0 0 -1.0102 -686.5468 147.6633)">
	</image>
</g>
<g>
	<path fill="#6C6C6C" d="M3.3,37.8h14.4v46.3H3.3V37.8z M10.5,14.8c4.6,0,8.3,3.7,8.3,8.3c0,4.6-3.7,8.3-8.3,8.3
		c-4.6,0-8.3-3.7-8.3-8.3C2.1,18.6,5.9,14.8,10.5,14.8"/>
	<path fill="#6C6C6C" d="M26.7,37.8h13.8v6.3h0.2c1.9-3.6,6.6-7.5,13.6-7.5c14.6,0,17.3,9.6,17.3,22v25.4H57.2V61.6
		c0-5.4-0.1-12.3-7.5-12.3c-7.5,0-8.6,5.8-8.6,11.9v22.9H26.7V37.8z"/>
</g>
</svg>
