<?xml version="1.0" encoding="utf-8"?>
<!-- Generator: Adobe Illustrator 16.0.3, SVG Export Plug-In . SVG Version: 6.00 Build 0)  -->
<!DOCTYPE svg PUBLIC "-//W3C//DTD SVG 1.1//EN" "http://www.w3.org/Graphics/SVG/1.1/DTD/svg11.dtd">
<svg version="1.1" id="圖層_1" xmlns="http://www.w3.org/2000/svg" xmlns:xlink="http://www.w3.org/1999/xlink" x="0px" y="0px"
	 width="50px" height="70px" viewBox="0 0 50 70" style="enable-background:new 0 0 50 70;" xml:space="preserve">
<g>
	<g>
		<path style="opacity:0.75;fill:none;stroke:#0071BE;stroke-width:1.1;stroke-miterlimit:10;" d="M25.0859,1.2832L6.9727,4.6172
			v24.5596c0,10.002,18.1074,18.1045,18.1133,18.1064c0,0,18.1133-8.1025,18.1133-18.1064V4.6172L25.0859,1.2832z"/>
		<path style="opacity:0.1;fill:#0071BE;" d="M25.0859,4.7334L9.6895,7.5674v20.876c0,8.501,15.3906,15.3887,15.3965,15.3906
			c0,0,15.3965-6.8877,15.3965-15.3906V7.5674L25.0859,4.7334z"/>
		<g style="opacity:0.75;">
			<path style="fill:#0071BE;" d="M19.0957,26.9727l1.8789-0.1641c0.0898,0.7529,0.2969,1.3701,0.6211,1.8525
				s0.8301,0.873,1.5137,1.1699c0.6855,0.2988,1.4551,0.4473,2.3105,0.4473c0.7598,0,1.4297-0.1133,2.0117-0.3389
				s1.0137-0.5361,1.2988-0.9287c0.2832-0.3936,0.4258-0.8232,0.4258-1.2891c0-0.4717-0.1367-0.8838-0.4102-1.2363
				c-0.2754-0.3525-0.7266-0.6484-1.3555-0.8877c-0.4043-0.1582-1.2969-0.4023-2.6797-0.7344
				c-1.3828-0.3315-2.3496-0.6445-2.9043-0.939c-0.7188-0.3765-1.2539-0.8433-1.6074-1.4014
				c-0.3516-0.5576-0.5273-1.1821-0.5273-1.873c0-0.7598,0.2148-1.4697,0.6465-2.1299c0.4297-0.6606,1.0605-1.1616,1.8887-1.5039
				s1.748-0.5132,2.7598-0.5132c1.1172,0,2.0996,0.1797,2.9512,0.5386c0.8535,0.3594,1.5078,0.8882,1.9668,1.5859
				c0.459,0.6982,0.7051,1.4888,0.7383,2.3711l-1.9082,0.144c-0.1035-0.9512-0.4512-1.6699-1.043-2.1558s-1.4648-0.729-2.6211-0.729
				c-1.2051,0-2.084,0.2207-2.6348,0.6621s-0.8262,0.9736-0.8262,1.5962c0,0.541,0.1953,0.9858,0.5859,1.3345
				c0.3828,0.3491,1.3848,0.707,3.002,1.0728c1.6191,0.3662,2.7285,0.686,3.332,0.96c0.875,0.4038,1.5215,0.915,1.9395,1.5347
				c0.418,0.6191,0.627,1.332,0.627,2.1396c0,0.8008-0.2305,1.5557-0.6895,2.2637c-0.457,0.709-1.1172,1.2598-1.9746,1.6523
				c-0.8594,0.3945-1.8262,0.5908-2.9004,0.5908c-1.3613,0-2.5039-0.1982-3.4238-0.5957c-0.9199-0.3965-1.6426-0.9932-2.166-1.791
				S19.123,27.9795,19.0957,26.9727z"/>
		</g>
	</g>
	<g style="opacity:0.3;">
		<linearGradient id="SVGID_1_" gradientUnits="userSpaceOnUse" x1="25" y1="68.7168" x2="25" y2="47.8809">
			<stop  offset="0" style="stop-color:#FFFFFF"/>
			<stop  offset="0.82" style="stop-color:#8E9BAA"/>
			<stop  offset="0.8924" style="stop-color:#808B98"/>
			<stop  offset="1" style="stop-color:#656D75"/>
		</linearGradient>
		<path style="fill:url(#SVGID_1_);" d="M24.9707,47.8809l0.2031,0.0684c0.1846,0.0605,18.4893,5.334,18.4893,13.2441v4.0879
			L25,68.7168L6.3369,65.2813v-4.373c0-8.125,17.6855-12.6035,18.4385-12.9395L24.9707,47.8809z"/>
	</g>
</g>
</svg>
