<svg id="圖層_1" data-name="圖層 1" xmlns="http://www.w3.org/2000/svg" viewBox="0 0 38 38"><defs><style>.cls-1{fill:#fff;}.cls-1,.cls-2{stroke:#4e5158;stroke-miterlimit:10;}.cls-2{fill:none;}</style></defs><title>未命名-3</title><path class="cls-1" d="M30.28,33.15c.52,2.27-8.55,2.5-8.17,0l2.44-9.88h3.29Z"/><path class="cls-1" d="M27.68,23.29c-7.52,9.07-18.25,7.54-21.14,4.65s.07-10.52,6.6-17.05S27.31,1.4,30.19,4.29,34.43,15.15,27.68,23.29Z"/><ellipse class="cls-2" cx="18.37" cy="15.99" rx="16.72" ry="7.39" transform="translate(-5.93 17.67) rotate(-45)"/><path class="cls-1" d="M11.26,9c-.33-.23-.53.41-.53.41s7.84,9.79,9.2,11.39c1.74,2.06,5.47-2.2,3.63-3.37C17.83,13.78,12.81,10.06,11.26,9Z"/><circle class="cls-1" cx="9.72" cy="7.7" r="2.59"/><ellipse class="cls-1" cx="9.72" cy="6.58" rx="1.63" ry="1.12"/></svg>