<svg id="圖層_1" data-name="圖層 1" xmlns="http://www.w3.org/2000/svg" viewBox="0 0 38 38"><defs><style>.cls-1,.cls-3{fill:none;}.cls-1,.cls-2,.cls-3{stroke:#4e5158;stroke-miterlimit:10;}.cls-2{fill:#fff;}.cls-3{stroke-width:0.25px;}</style></defs><title>未命名-3</title><path class="cls-1" d="M24.91,2.31c-.93-.16-.29-.09-1.28-.22s-8.38-.12-9.27,0-.35.06-1.28.22-1.19.51-1.19.89V5.52c0,.27.2.17.2.17H25.9s.2.1.2-.17V3.2C26.11,2.82,25.84,2.47,24.91,2.31Z"/><path class="cls-1" d="M24.91,35.69c-.93.16-.29.09-1.28.22s-8.38.12-9.27,0-.35-.06-1.28-.22-1.19-.51-1.19-.89V32.48c0-.27.2-.17.2-.17H25.9s.2-.1.2.17V34.8C26.11,35.18,25.84,35.53,24.91,35.69Z"/><path class="cls-2" d="M25.23,5A11.23,11.23,0,0,0,23,4.56c-1.09-.1-4-.09-4-.09s-3.63,0-4.4.1A7,7,0,0,0,13,4.84c-.8.24-.85.7-.85.7v27s.05.46.85.7a7,7,0,0,0,1.62.26c.77.1,4.4.1,4.4.1s2.87,0,4-.09a11.23,11.23,0,0,0,2.27-.39c.67-.19.67-.68.67-.68V5.64S25.9,5.14,25.23,5Z"/><line class="cls-3" x1="24.6" y1="4.8" x2="24.6" y2="33.09"/><line class="cls-3" x1="13.32" y1="5.28" x2="13.32" y2="33.57"/><line class="cls-3" x1="23.7" y1="4.8" x2="23.7" y2="33.09"/></svg>