<svg id="圖層_1" data-name="圖層 1" xmlns="http://www.w3.org/2000/svg" viewBox="0 0 38 38"><defs><style>.cls-1{fill:none;}.cls-1,.cls-2{stroke:#4e5158;stroke-miterlimit:10;}.cls-2{fill:#fff;}</style></defs><title>未命名-3</title><path class="cls-1" d="M16.88,35.59A4.17,4.17,0,0,0,19,36a4.25,4.25,0,0,0,2.13-.41v-.8l-4.26-.11Z"/><path class="cls-2" d="M16.71,34.77a5.05,5.05,0,0,0,2.4.52,4,4,0,0,0,2.19-.39v-2l-.16-.11H16.71Z"/><path class="cls-2" d="M16.88,32.83a6.68,6.68,0,0,0,2.12.41,6.86,6.86,0,0,0,2.13-.41v-.91H16.88Z"/><path class="cls-2" d="M20.74,2.37s0-.37-.3-.37H17.61c-.25,0-.3.14-.3.14l-.25,12-.36,17.67.17.07a6.64,6.64,0,0,0,2.21.28c1.78,0,2.2-.36,2.2-.36Z"/></svg>