<?xml version="1.0" encoding="utf-8"?>
<!-- Generator: Adobe Illustrator 16.0.3, SVG Export Plug-In . SVG Version: 6.00 Build 0)  -->
<!DOCTYPE svg PUBLIC "-//W3C//DTD SVG 1.1//EN" "http://www.w3.org/Graphics/SVG/1.1/DTD/svg11.dtd">
<svg version="1.1" id="圖層_1" xmlns="http://www.w3.org/2000/svg" xmlns:xlink="http://www.w3.org/1999/xlink" x="0px" y="0px"
	 width="50px" height="70px" viewBox="0 0 50 70" style="enable-background:new 0 0 50 70;" xml:space="preserve">
<g>
	<g style="opacity:0.3;">
		<linearGradient id="SVGID_1_" gradientUnits="userSpaceOnUse" x1="24.9873" y1="68.875" x2="24.9873" y2="49.21">
			<stop  offset="0" style="stop-color:#FFFFFF"/>
			<stop  offset="0.82" style="stop-color:#8E9BAA"/>
			<stop  offset="0.8924" style="stop-color:#808B98"/>
			<stop  offset="1" style="stop-color:#656D75"/>
		</linearGradient>
		<path style="fill:url(#SVGID_1_);" d="M35.4873,68.875h-21c-1.4063,0-2.5498-1.1436-2.5498-2.5498V51.7598
			c0-1.4063,1.1436-2.5498,2.5498-2.5498h21c1.4063,0,2.5498,1.1436,2.5498,2.5498v14.5654
			C38.0371,67.7314,36.8936,68.875,35.4873,68.875z"/>
	</g>
	<path style="fill:none;stroke:#0071BE;stroke-width:1.1;stroke-miterlimit:10;" d="M37.5,46.667c0,1.1045-0.8955,2-2,2h-21
		c-1.1045,0-2-0.8955-2-2V3.333c0-1.1045,0.8955-2,2-2h21c1.1045,0,2,0.8955,2,2V46.667z"/>
	<path style="opacity:0.1;fill:#0071BE;" d="M35.625,44.583c0,0.9385-0.7607,1.7002-1.7002,1.7002H16.0752
		c-0.9395,0-1.7002-0.7617-1.7002-1.7002V5.416c0-0.9385,0.7607-1.6992,1.7002-1.6992h17.8496c0.9395,0,1.7002,0.7607,1.7002,1.6992
		V44.583z"/>
	<g>
		<path style="opacity:0.85;fill:#0071BE;" d="M20.5,11.25c0,0.2764-0.2236,0.5-0.5,0.5h-2.5c-0.2764,0-0.5-0.2236-0.5-0.5v-2.5
			c0-0.2764,0.2236-0.5,0.5-0.5H20c0.2764,0,0.5,0.2236,0.5,0.5V11.25z"/>
		<path style="opacity:0.85;fill:#0071BE;" d="M26.75,11.25c0,0.2764-0.2236,0.5-0.5,0.5h-2.5c-0.2764,0-0.5-0.2236-0.5-0.5v-2.5
			c0-0.2764,0.2236-0.5,0.5-0.5h2.5c0.2764,0,0.5,0.2236,0.5,0.5V11.25z"/>
		<path style="opacity:0.85;fill:#0071BE;" d="M33,11.25c0,0.2764-0.2236,0.5-0.5,0.5H30c-0.2764,0-0.5-0.2236-0.5-0.5v-2.5
			c0-0.2764,0.2236-0.5,0.5-0.5h2.5c0.2764,0,0.5,0.2236,0.5,0.5V11.25z"/>
	</g>
	<g>
		<path style="opacity:0.85;fill:#0071BE;" d="M20.5,17.4585c0,0.2764-0.2236,0.5-0.5,0.5h-2.5c-0.2764,0-0.5-0.2236-0.5-0.5v-2.5
			c0-0.2764,0.2236-0.5,0.5-0.5H20c0.2764,0,0.5,0.2236,0.5,0.5V17.4585z"/>
		<path style="opacity:0.85;fill:#0071BE;" d="M26.75,17.4585c0,0.2764-0.2236,0.5-0.5,0.5h-2.5c-0.2764,0-0.5-0.2236-0.5-0.5v-2.5
			c0-0.2764,0.2236-0.5,0.5-0.5h2.5c0.2764,0,0.5,0.2236,0.5,0.5V17.4585z"/>
		<path style="opacity:0.85;fill:#0071BE;" d="M33,17.4585c0,0.2764-0.2236,0.5-0.5,0.5H30c-0.2764,0-0.5-0.2236-0.5-0.5v-2.5
			c0-0.2764,0.2236-0.5,0.5-0.5h2.5c0.2764,0,0.5,0.2236,0.5,0.5V17.4585z"/>
	</g>
	<g>
		<path style="opacity:0.85;fill:#0071BE;" d="M20.5,23.6665c0,0.2764-0.2236,0.5-0.5,0.5h-2.5c-0.2764,0-0.5-0.2236-0.5-0.5v-2.5
			c0-0.2764,0.2236-0.5,0.5-0.5H20c0.2764,0,0.5,0.2236,0.5,0.5V23.6665z"/>
		<path style="opacity:0.85;fill:#0071BE;" d="M26.75,23.6665c0,0.2764-0.2236,0.5-0.5,0.5h-2.5c-0.2764,0-0.5-0.2236-0.5-0.5v-2.5
			c0-0.2764,0.2236-0.5,0.5-0.5h2.5c0.2764,0,0.5,0.2236,0.5,0.5V23.6665z"/>
		<path style="opacity:0.85;fill:#0071BE;" d="M33,23.6665c0,0.2764-0.2236,0.5-0.5,0.5H30c-0.2764,0-0.5-0.2236-0.5-0.5v-2.5
			c0-0.2764,0.2236-0.5,0.5-0.5h2.5c0.2764,0,0.5,0.2236,0.5,0.5V23.6665z"/>
	</g>
	<g>
		<path style="opacity:0.85;fill:#0071BE;" d="M20.5,29.875c0,0.2764-0.2236,0.5-0.5,0.5h-2.5c-0.2764,0-0.5-0.2236-0.5-0.5v-2.5
			c0-0.2764,0.2236-0.5,0.5-0.5H20c0.2764,0,0.5,0.2236,0.5,0.5V29.875z"/>
		<path style="opacity:0.85;fill:#0071BE;" d="M26.75,29.875c0,0.2764-0.2236,0.5-0.5,0.5h-2.5c-0.2764,0-0.5-0.2236-0.5-0.5v-2.5
			c0-0.2764,0.2236-0.5,0.5-0.5h2.5c0.2764,0,0.5,0.2236,0.5,0.5V29.875z"/>
		<path style="opacity:0.85;fill:#0071BE;" d="M33,29.875c0,0.2764-0.2236,0.5-0.5,0.5H30c-0.2764,0-0.5-0.2236-0.5-0.5v-2.5
			c0-0.2764,0.2236-0.5,0.5-0.5h2.5c0.2764,0,0.5,0.2236,0.5,0.5V29.875z"/>
	</g>
</g>
</svg>
