<?xml version="1.0" encoding="utf-8"?>
<!-- Generator: Adobe Illustrator 16.0.3, SVG Export Plug-In . SVG Version: 6.00 Build 0)  -->
<!DOCTYPE svg PUBLIC "-//W3C//DTD SVG 1.1//EN" "http://www.w3.org/Graphics/SVG/1.1/DTD/svg11.dtd">
<svg version="1.1" id="圖層_1" xmlns="http://www.w3.org/2000/svg" xmlns:xlink="http://www.w3.org/1999/xlink" x="0px" y="0px"
	 width="50px" height="70px" viewBox="0 0 50 70" style="enable-background:new 0 0 50 70;" xml:space="preserve">
<g>
	<polygon style="opacity:0.1;fill:#0071BE;" points="35.7598,8.0664 35.7598,5.1938 31.498,5.1938 31.498,2.0659 18.502,2.0659 
		18.502,5.1938 14.2402,5.1938 14.2402,8.0664 12.1406,8.0664 12.1406,47.9336 37.8594,47.9336 37.8594,8.0664 	"/>
	<g>
		<rect x="16.7373" y="10.166" style="fill:#FFFFFF;" width="2.834" height="2.834"/>
		<rect x="21.3018" y="10.166" style="fill:#FFFFFF;" width="2.834" height="2.834"/>
		<rect x="25.8643" y="10.166" style="fill:#FFFFFF;" width="2.834" height="2.834"/>
		<rect x="30.4287" y="10.166" style="fill:#FFFFFF;" width="2.834" height="2.834"/>
	</g>
	<g>
		<rect x="16.7373" y="15.708" style="fill:#FFFFFF;" width="2.834" height="2.833"/>
		<rect x="21.3018" y="15.708" style="fill:#FFFFFF;" width="2.834" height="2.833"/>
		<rect x="25.8643" y="15.708" style="fill:#FFFFFF;" width="2.834" height="2.833"/>
		<rect x="30.4287" y="15.708" style="fill:#FFFFFF;" width="2.834" height="2.833"/>
	</g>
	<g>
		<rect x="16.7373" y="21.25" style="fill:#FFFFFF;" width="2.834" height="2.833"/>
		<rect x="21.3018" y="21.25" style="fill:#FFFFFF;" width="2.834" height="2.833"/>
		<rect x="25.8643" y="21.25" style="fill:#FFFFFF;" width="2.834" height="2.833"/>
		<rect x="30.4287" y="21.25" style="fill:#FFFFFF;" width="2.834" height="2.833"/>
	</g>
	<path style="opacity:0.75;fill:#0071BE;" d="M4.4688,25.4395l13.4492,6.5996v12.6934c0,0,0,1.6934,1.4023,1.7773
		c0,0,1.3535,0.2109,1.3955-1.7773v-11.043l15.0293,7.2773l0.6689-1.3691c0,0,0.9971,1.1426,1.8223,0.8887l3.1699-6.543
		c0,0,0.126-0.7617-1.6514-1.2695l1.3975-3.041l1.9668,0.8828l2.4121-0.1895L10.499,13L4.4688,25.4395z"/>
	<linearGradient id="SVGID_1_" gradientUnits="userSpaceOnUse" x1="25" y1="76.792" x2="25" y2="47.9336">
		<stop  offset="0" style="stop-color:#FFFFFF"/>
		<stop  offset="0.82" style="stop-color:#8E9BAA"/>
		<stop  offset="0.8924" style="stop-color:#808B98"/>
		<stop  offset="1" style="stop-color:#656D75"/>
	</linearGradient>
	<path style="opacity:0.3;fill:url(#SVGID_1_);" d="M4.4688,64.3525l13.4492-6.5996v-8.0352c0,0,0-1.6934,1.4023-1.7773
		c0,0,1.3535-0.2109,1.3955,1.7773v6.3848l15.0293-7.2773l0.6689,1.3691c0,0,0.9971-1.1426,1.8223-0.8887l3.1699,6.543
		c0,0,0.126,0.7617-1.6514,1.2695l1.3975,3.041l1.9668-0.8828l2.4121,0.1895L10.499,76.792L4.4688,64.3525z"/>
</g>
</svg>
