<?xml version="1.0" encoding="utf-8"?>
<!-- Generator: Adobe Illustrator 16.0.3, SVG Export Plug-In . SVG Version: 6.00 Build 0)  -->
<!DOCTYPE svg PUBLIC "-//W3C//DTD SVG 1.1//EN" "http://www.w3.org/Graphics/SVG/1.1/DTD/svg11.dtd">
<svg version="1.1" id="圖層_1" xmlns="http://www.w3.org/2000/svg" xmlns:xlink="http://www.w3.org/1999/xlink" x="0px" y="0px"
	 width="50px" height="70px" viewBox="0 0 50 70" style="enable-background:new 0 0 50 70;" xml:space="preserve">
<g>
	<linearGradient id="SVGID_1_" gradientUnits="userSpaceOnUse" x1="24.8867" y1="66.1963" x2="24.8867" y2="40.8613">
		<stop  offset="0" style="stop-color:#FFFFFF"/>
		<stop  offset="0.82" style="stop-color:#8E9BAA"/>
		<stop  offset="0.8924" style="stop-color:#808B98"/>
		<stop  offset="1" style="stop-color:#656D75"/>
	</linearGradient>
	<path style="opacity:0.3;fill:url(#SVGID_1_);" d="M25.0127,60.459c-0.4102-0.8135-0.8848-1.708-1.4209-2.6748l-3.1484-5.7148
		l-2.1924-3.9492l-4.0908-7.2588l-7.1523,0.001l15.168,25.334h6.3564l14.2324-25.335h-7.084l-3.8496,7.2588L25.0127,60.459z"/>
	<g>
		<path style="fill:none;" d="M24.5127,12.4219l0.1807,0.0889c-0.0352-0.1016-0.0771-0.2148-0.1113-0.3154
			C24.5605,12.2715,24.5352,12.3467,24.5127,12.4219z"/>
		<path style="opacity:0.85;fill:#0071BE;" d="M36.5137,32.2598l-0.6729,1.3799l-3.9199-1.8975l3.5137,9.1191h7.4619l-3.791-9.2607
			l-0.7529,1.5547C37.5205,33.4111,36.5137,32.2598,36.5137,32.2598z"/>
		<path style="opacity:0.85;fill:#0071BE;" d="M24.582,12.1953c0.0342,0.1006,0.0762,0.2139,0.1113,0.3154l8.2725,4.0918
			L27.7275,3.8037h-6.3564l-2.2803,5.9365l5.4219,2.6816C24.5352,12.3467,24.5605,12.2715,24.582,12.1953z"/>
		<polygon style="opacity:0.85;fill:#0071BE;" points="14.082,22.7822 7.1387,40.8613 14.2227,40.8613 17.8564,30.8408 
			17.8564,24.6348 		"/>
		<path style="opacity:0.85;fill:#0071BE;" d="M23.499,15.5273l-3.3457,8.9404h8.998l-3.1484-8.3584
			c-0.4922-1.2969-0.9238-2.4902-1.3096-3.5986l-0.1807-0.0889C24.2129,13.4619,23.877,14.499,23.499,15.5273z"/>
		<polygon style="opacity:0.85;fill:#0071BE;" points="10.3711,5.4277 4.2891,17.9756 14.082,22.7822 19.0908,9.7402 		"/>
		<polygon style="opacity:0.85;fill:#0071BE;" points="28.8291,30.2451 31.9209,31.7422 31.3438,30.2451 		"/>
		<path style="opacity:0.85;fill:#0071BE;" d="M43.2783,23.0977l2.4326-0.1924l-12.7451-6.3027l6.1396,14.998l2.4453-5.0459
			c0,0,0.1279-0.7676-1.666-1.2803l1.4082-3.0674L43.2783,23.0977z"/>
		<path style="opacity:0.85;fill:#0071BE;" d="M17.8564,30.8408v6.5986c0,0,0,1.707,1.4131,1.791c0,0,1.3662,0.2148,1.4092-1.791
			v-7.1943h-2.6064L17.8564,30.8408z"/>
		<path style="opacity:0.1;fill:#0071BE;" d="M24.6934,12.5107c0.3857,1.1084,0.8174,2.3018,1.3096,3.5986l3.1484,8.3584h-8.998
			l3.3457-8.9404c0.3779-1.0283,0.7139-2.0654,1.0137-3.1055l-5.4219-2.6816l-5.0088,13.042l3.7744,1.8525v6.2061l0.2158-0.5957
			h2.6064v-3.9453l8.1504,3.9453h2.5146l0.5771,1.4971l3.9199,1.8975l0.6729-1.3799c0,0,1.0068,1.1514,1.8389,0.8955l0.7529-1.5547
			l-6.1396-14.998L24.6934,12.5107z"/>
	</g>
</g>
</svg>
