<?xml version="1.0" encoding="utf-8"?>
<!-- Generator: Adobe Illustrator 16.0.3, SVG Export Plug-In . SVG Version: 6.00 Build 0)  -->
<!DOCTYPE svg PUBLIC "-//W3C//DTD SVG 1.1//EN" "http://www.w3.org/Graphics/SVG/1.1/DTD/svg11.dtd">
<svg version="1.1" id="圖層_1" xmlns="http://www.w3.org/2000/svg" xmlns:xlink="http://www.w3.org/1999/xlink" x="0px" y="0px"
	 width="50px" height="70px" viewBox="0 0 50 70" style="enable-background:new 0 0 50 70;" xml:space="preserve">
<g>
	<linearGradient id="SVGID_1_" gradientUnits="userSpaceOnUse" x1="18.4551" y1="65.4912" x2="18.4551" y2="50.0576">
		<stop  offset="0" style="stop-color:#FFFFFF"/>
		<stop  offset="0.82" style="stop-color:#8E9BAA"/>
		<stop  offset="0.8924" style="stop-color:#808B98"/>
		<stop  offset="1" style="stop-color:#656D75"/>
	</linearGradient>
	<path style="opacity:0.3;fill:url(#SVGID_1_);" d="M33.9014,65.4688c0-8.498-6.9316-15.4111-15.4517-15.4111
		c-8.5146,0-15.4414,6.9131-15.4414,15.4111c0,0.0078,0.001,0.0146,0.001,0.0225h30.8921
		C33.9014,65.4834,33.9014,65.4766,33.9014,65.4688z"/>
	<g>
		<path style="opacity:0.75;fill:#0071BE;" d="M26.7324,16.6367c-0.6348-0.0122-1.1323-0.5293-1.1196-1.1641
			c0.0112-0.6177,0.5376-1.1235,1.1558-1.1108c2.7979,0.0464,5.4746,1.2285,7.4102,3.2407
			c1.9316,2.0083,3.0117,4.7485,2.9541,7.5342c-0.0088,0.6221-0.5254,1.1191-1.1553,1.1123
			c-0.6309-0.0088-1.1318-0.5298-1.1162-1.1606c0.043-2.2021-0.7881-4.3281-2.3145-5.916
			C31.0156,17.5811,28.9355,16.6797,26.7324,16.6367L26.7324,16.6367z M26.8271,11.7065c-0.6338-0.0127-1.1309-0.5298-1.1157-1.1597
			c0.0088-0.6221,0.5259-1.1201,1.1567-1.1108c4.1016,0.0757,8.0254,1.793,10.8652,4.7466
			c2.8418,2.9541,4.3975,6.9487,4.3213,11.043c-0.0078,0.6221-0.5254,1.1191-1.1504,1.1143
			c-0.6182-0.0127-1.1279-0.5259-1.1113-1.1553c0.0596-3.4956-1.2695-6.8994-3.6992-9.4243
			C33.6563,13.2266,30.334,11.7788,26.8271,11.7065L26.8271,11.7065z M26.916,6.7842c-0.626-0.02-1.1245-0.5371-1.1035-1.1631
			c0.0156-0.6309,0.5283-1.1157,1.1553-1.1118c5.4102,0.1094,10.5625,2.3623,14.3135,6.2612s5.8086,9.1445,5.707,14.5552
			c-0.0195,0.6265-0.5361,1.1226-1.1631,1.1187c-0.626-0.0205-1.123-0.5371-1.1152-1.1606
			c0.0986-4.8306-1.7148-9.4644-5.0605-12.9429C36.3037,8.8618,31.7432,6.8701,26.916,6.7842L26.916,6.7842z"/>
		<path style="opacity:0.75;fill:none;stroke:#0071BE;stroke-width:1.1;stroke-miterlimit:10;" d="M18.417,49.5146
			c-8.2095,0-14.8916-6.6777-14.8916-14.9063c0-8.2051,6.6821-14.8608,14.8916-14.8608c8.2207,0,14.9023,6.6558,14.9023,14.8608
			C33.3193,42.8369,26.6377,49.5146,18.417,49.5146z"/>
		<path style="opacity:0.1;fill:#0071BE;" d="M18.418,47.2822c-6.978,0-12.6582-5.6758-12.6582-12.6709
			c0-6.9736,5.6802-12.6313,12.6582-12.6313c6.9873,0,12.667,5.6577,12.667,12.6313C31.085,41.6064,25.4053,47.2822,18.418,47.2822z
			"/>
		<path style="fill:#FFFFFF;" d="M18.4204,40.9561c-3.4893,0-6.3291-2.8379-6.3291-6.335c0-3.4873,2.8398-6.3154,6.3291-6.3154
			c3.4932,0,6.333,2.8281,6.333,6.3154C24.7534,38.1182,21.9136,40.9561,18.4204,40.9561z"/>
		<path style="opacity:0.75;fill:#0071BE;" d="M18.4209,38.4258c-2.0933,0-3.7974-1.7021-3.7974-3.8008
			c0-2.0928,1.7041-3.7891,3.7974-3.7891c2.0962,0,3.7998,1.6963,3.7998,3.7891C22.2207,36.7236,20.5171,38.4258,18.4209,38.4258z"
			/>
	</g>
</g>
</svg>
