<?xml version="1.0" encoding="utf-8"?>
<!-- Generator: Adobe Illustrator 16.0.3, SVG Export Plug-In . SVG Version: 6.00 Build 0)  -->
<!DOCTYPE svg PUBLIC "-//W3C//DTD SVG 1.1//EN" "http://www.w3.org/Graphics/SVG/1.1/DTD/svg11.dtd">
<svg version="1.1" id="圖層_1" xmlns="http://www.w3.org/2000/svg" xmlns:xlink="http://www.w3.org/1999/xlink" x="0px" y="0px"
	 width="64px" height="64px" viewBox="0 0 64 64" enable-background="new 0 0 64 64" xml:space="preserve">
<path fill="#0071BE" d="M19.465,8.939c-0.645-0.531-0.871-0.767-1.379-1.044L12.563,8.87l0.182,0.518l0.216,0.698
	C15.009,9.723,17.415,9.301,19.465,8.939 M21.677,11.579c0.057-0.191,0.042-0.28,0.009-0.459c2.674-0.472,5.347-0.944,8.021-1.414
	c-0.015-0.091-0.048-0.269-0.063-0.357l7.752-1.366c0.765,0.691,1.487,1.667,2.032,2.673c-3.207,0.564-6.416,1.13-9.622,1.697
	c0.057-0.193,0.042-0.284,0.01-0.463c-2.672,0.472-5.347,0.942-8.019,1.415c0.057-0.194,0.042-0.282,0.01-0.461
	c-2.405,0.424-5.702,1.007-8.108,1.429c0.026-0.37-0.052-0.816-0.131-1.264C15.974,12.587,19.27,12.005,21.677,11.579z
	 M40.005,11.84l-9.98,1.76l-0.01,0.461l-7.93,1.399l0.167,0.429c-2.851,0.505-5.168,0.91-8.02,1.415
	c0.079,0.444,0.215,0.696,0.31,1.23l7.929-1.399l0.079,0.448l7.931-1.398l0.151,0.338l10.425-1.837
	C40.796,13.723,40.459,12.862,40.005,11.84z M42.524,18.837c-0.603-0.813-0.88-1.865-1.069-2.936L31.03,17.742l0.168,0.427
	l-8.02,1.415l0.079,0.445c-2.674,0.472-5.346,0.942-8.019,1.412c-0.011,0.464,0.142,0.806,0.31,1.232l8.107-1.428l0.167,0.429
	l7.841-1.382l0.168,0.43L42.524,18.837z M45.685,19.566l-17.285,3.048l-0.1,0.478c-2.406,0.426-4.813,0.848-7.308,1.288
	c0.016,0.09-0.042,0.282-0.026,0.37c-3.118,0.552-5.524,0.974-8.553,1.51c-0.221,0.313-0.377,0.984-0.388,1.447
	c2.94-0.521,5.791-1.023,8.731-1.54c-0.058,0.194-0.131,0.297-0.293,0.42l7.573-1.337l-0.011,0.463l22.097-3.896l-0.137-0.254
	c-0.785-1.329-2.609-2.294-3.945-2.059L45.685,19.566z M46.349,23.859c-0.616,0.658-0.439,2.19,0.047,3.391L29.11,30.298
	l-0.151-0.341l-7.485,1.32l-0.168-0.431c-2.761,0.488-5.702,1.006-8.464,1.492c-0.047-0.267-0.214-0.697-0.246-0.875
	c-0.047-0.268-0.047-0.268-0.063-0.357l8.464-1.493l-0.167-0.427c2.583-0.456,4.99-0.882,7.484-1.32
	c-0.046-0.269-0.167-0.43-0.23-0.787L46.349,23.859z M46.973,28.435c0.529,0.917,1.074,1.924,1.603,2.841l-16.038,2.828
	l-0.523-0.366l-6.949,1.225l-0.525-0.367c-2.405,0.425-6.237,1.101-8.643,1.522c-0.492-0.188-0.942-0.658-1.378-1.042l9-1.587
	l-0.614-0.352l7.484-1.32l-0.345-0.397C35.746,30.415,41.27,29.439,46.973,28.435z M49.063,32.478l-11.138,1.962l0.168,0.429
	l-8.02,1.415l0.345,0.397l-7.93,1.398c0.362,0.49,0.377,0.578,0.933,1.124l7.93-1.399l0.331,0.309l7.75-1.367l0.258,0.415
	c3.564-0.63,7.306-1.288,10.781-1.899C50.105,34.221,49.682,33.376,49.063,32.478z M50.977,36.549l-10.158,1.792l0.418,0.292
	l-7.93,1.398l0.436,0.385l-8.019,1.413l1.378,1.044l7.841-1.385l0.435,0.382l7.93-1.396l0.524,0.365l7.931-1.396
	C51.573,38.372,51.342,37.586,50.977,36.549z M51.981,40.688l-6.86,1.211l2.479,2.594l4.187-0.737
	C52.075,42.786,52.064,41.684,51.981,40.688z M51.636,44.977c-0.079,1.116-0.415,1.817-0.944,2.462l-1.729-1.992
	C49.853,45.289,50.743,45.134,51.636,44.977z M43.517,46.868l-2.05,0.359c0.451,0.473,0.811,0.959,1.277,1.521
	C43.186,48.121,43.447,47.521,43.517,46.868z M43.957,44.676c0.068-0.652,0.032-1.382-0.006-2.112l-6.505,1.147l2.146,1.734
	C41.016,45.195,42.531,44.929,43.957,44.676z M35.963,45.719c0.102-0.478,0.112-0.937,0.032-1.385l-6.326,1.115l1.394,1.133
	C32.666,46.302,34.359,46.001,35.963,45.719z M35.665,48.712c-0.011,0.459-0.216,0.864-0.405,1.355l-1.109-1.09
	C34.685,48.884,35.219,48.789,35.665,48.712z M36.357,6.788c-0.949-1.212-2.238-2.271-3.192-2.471l-4.989,0.882
	c0.456,1.02,0.67,1.719,1.053,2.846C31.545,7.636,34.041,7.195,36.357,6.788z M27.919,7.906c-0.781-0.78-1.515-1.294-2.338-1.79
	l-5.079,0.895c0.215,0.696,0.503,1.29,0.645,2.092L27.919,7.906z M27.688,3.998c1.158-0.204,2.406-0.426,3.475-0.613
	C29.816,2.519,28.266,2.058,26.51,2C27.171,2.62,27.4,3.405,27.688,3.998z M22.264,4.496c-1.315-0.688-2.373-0.96-3.773-1.079
	c0.362,0.486,0.634,0.987,0.921,1.58L22.264,4.496z M13.542,5.573c-1.09-0.451-1.954-0.665-3.07-0.746
	c0.345,0.401,0.499,0.739,0.665,1.171L13.542,5.573z"/>
<path fill="#FDD000" d="M46.244,10.347c7.455-1.916,12.946-1.768,14.247,0.888c2.235,4.563-6.308,15.652-22.017,23.689
	C22.765,42.963,5.683,44.99,3.446,40.426c-0.866-1.764,0.251-4.387,2.855-7.406c-0.763,1.479-0.96,2.788-0.485,3.835
	c2.016,4.454,15.389,2.548,29.767-4.246c14.381-6.792,24.465-15.966,22.45-20.419C56.931,9.757,52.439,9.222,46.244,10.347z"/>
<path fill="#0071BE" d="M15.463,59.964c-2.077-0.005-3.203,0.018-5.288,0.018c0,0.563,0,1.258,0,1.825c1.8,0,3.597,0,5.394,0
	c3.778-0.21,3.485-5.826-0.005-5.826c-1.104,0-1.876,0-2.984,0c-1.339-0.517-0.467-1.787,1.099-1.634c1.453,0,2.573,0,4.021,0
	c0-0.565,0-1.194,0-1.758c-1.448,0-2.9,0-4.353,0c-4.15,0-4.561,4.986-1.1,5.216c1.299,0,1.99,0,3.228-0.001
	C16.639,57.804,16.643,59.657,15.463,59.964"/>
<polygon fill="#0071BE" points="34.976,52.589 32.813,52.589 32.813,58.691 29.338,52.571 27.171,52.571 27.171,61.798 
	29.338,61.798 29.338,55.687 33.012,61.807 34.976,61.807 "/>
<polygon fill="#0071BE" points="26.004,61.807 26.004,59.981 21.71,59.981 21.71,57.871 25.999,57.871 25.999,56.048 21.71,56.048 
	21.71,54.347 25.999,54.347 25.999,52.589 19.543,52.589 19.543,57.737 19.543,57.737 19.543,60.834 19.549,60.834 19.549,61.807 
	26.004,61.807 "/>
<path fill="#0071BE" d="M49.573,52.387c-2.555,0-4.64,2.157-4.64,4.807c0,2.648,2.085,4.807,4.64,4.807
	c2.558,0,4.642-2.158,4.642-4.807C54.215,54.544,52.131,52.387,49.573,52.387z M49.573,60.027c-1.474,0-2.677-1.272-2.677-2.834
	c0-1.563,1.203-2.834,2.677-2.834c1.476,0,2.678,1.271,2.678,2.834C52.251,58.755,51.049,60.027,49.573,60.027z"/>
<polygon fill="#0071BE" points="42.688,61.803 44.9,61.803 41.648,52.576 39.27,52.576 35.818,61.768 38.052,61.768 40.444,55.1 "/>
</svg>
