<?xml version="1.0" encoding="utf-8"?>
<!-- Generator: Adobe Illustrator 16.0.3, SVG Export Plug-In . SVG Version: 6.00 Build 0)  -->
<!DOCTYPE svg PUBLIC "-//W3C//DTD SVG 1.1//EN" "http://www.w3.org/Graphics/SVG/1.1/DTD/svg11.dtd">
<svg version="1.1" id="圖層_1" xmlns="http://www.w3.org/2000/svg" xmlns:xlink="http://www.w3.org/1999/xlink" x="0px" y="0px"
	 width="336px" height="65px" viewBox="0 0 336 65" enable-background="new 0 0 336 65" xml:space="preserve">
<g>
	<g>
		<path fill="#0071BE" d="M16.808,9.438c-0.645-0.53-0.871-0.767-1.379-1.043L9.906,9.37l0.182,0.518l0.216,0.698
			C12.352,10.224,14.758,9.801,16.808,9.438 M19.02,12.078c0.057-0.191,0.042-0.279,0.009-0.459
			c2.674-0.473,5.347-0.943,8.021-1.413c-0.015-0.091-0.048-0.27-0.063-0.357l7.752-1.365c0.765,0.69,1.486,1.666,2.031,2.673
			c-3.207,0.563-6.416,1.129-9.621,1.695c0.057-0.191,0.042-0.283,0.01-0.463c-2.672,0.473-5.347,0.943-8.019,1.416
			c0.057-0.195,0.042-0.283,0.01-0.461c-2.405,0.424-5.702,1.006-8.108,1.428c0.026-0.369-0.052-0.814-0.131-1.264
			C13.317,13.086,16.613,12.504,19.02,12.078z M37.348,12.34l-9.979,1.76l-0.01,0.461l-7.93,1.398l0.167,0.43
			c-2.851,0.504-5.168,0.91-8.02,1.414c0.079,0.445,0.215,0.697,0.31,1.23l7.929-1.398l0.079,0.447l7.931-1.398l0.151,0.338
			l10.424-1.836C38.139,14.223,37.802,13.361,37.348,12.34z M39.866,19.336c-0.603-0.813-0.879-1.865-1.068-2.936l-10.425,1.842
			l0.168,0.426l-8.02,1.416l0.079,0.443c-2.674,0.473-5.346,0.943-8.019,1.412c-0.011,0.465,0.142,0.807,0.31,1.232l8.107-1.428
			l0.167,0.43l7.841-1.383l0.168,0.43L39.866,19.336z M43.028,20.064l-17.285,3.049l-0.1,0.479
			c-2.406,0.426-4.813,0.848-7.308,1.287c0.016,0.09-0.042,0.283-0.026,0.371c-3.118,0.551-5.524,0.973-8.553,1.51
			c-0.221,0.313-0.377,0.984-0.388,1.447c2.94-0.521,5.791-1.023,8.731-1.541c-0.058,0.193-0.131,0.297-0.293,0.42l7.573-1.336
			l-0.011,0.463l22.097-3.896l-0.138-0.254c-0.784-1.33-2.608-2.295-3.944-2.059L43.028,20.064z M43.692,24.357
			c-0.617,0.658-0.439,2.191,0.047,3.393l-17.286,3.047l-0.151-0.34l-7.485,1.318l-0.168-0.43c-2.761,0.488-5.702,1.006-8.464,1.492
			c-0.047-0.268-0.214-0.697-0.246-0.875c-0.047-0.27-0.047-0.27-0.063-0.357l8.464-1.494l-0.167-0.426
			c2.583-0.457,4.99-0.883,7.484-1.32c-0.046-0.27-0.167-0.43-0.23-0.787L43.692,24.357z M44.315,28.934
			c0.529,0.918,1.074,1.924,1.604,2.842l-16.038,2.828l-0.523-0.365l-6.949,1.225l-0.525-0.367
			c-2.405,0.426-6.237,1.102-8.643,1.521c-0.492-0.188-0.942-0.658-1.378-1.041l9-1.588l-0.614-0.352l7.484-1.32l-0.345-0.396
			C33.089,30.914,38.612,29.938,44.315,28.934z M46.405,32.977l-11.138,1.963l0.168,0.43l-8.02,1.414l0.345,0.398l-7.93,1.396
			c0.362,0.49,0.377,0.578,0.933,1.125l7.93-1.398l0.331,0.309l7.749-1.367l0.258,0.414c3.564-0.629,7.307-1.287,10.781-1.898
			C47.448,34.721,47.024,33.875,46.405,32.977z M48.319,37.049L38.161,38.84l0.418,0.293l-7.93,1.398l0.437,0.385l-8.019,1.412
			l1.378,1.045l7.841-1.385l0.435,0.381l7.931-1.395l0.523,0.363l7.932-1.395C48.916,38.871,48.685,38.086,48.319,37.049z
			 M49.323,41.188l-6.859,1.211l2.479,2.594l4.188-0.736C49.418,43.285,49.407,42.184,49.323,41.188z M48.979,45.477
			c-0.08,1.115-0.416,1.816-0.945,2.463l-1.729-1.992C47.196,45.789,48.086,45.633,48.979,45.477z M40.86,47.367l-2.051,0.359
			c0.451,0.473,0.811,0.959,1.277,1.521C40.528,48.621,40.79,48.021,40.86,47.367z M41.3,45.176
			c0.068-0.652,0.031-1.383-0.006-2.111l-6.506,1.146l2.146,1.734C38.358,45.695,39.874,45.43,41.3,45.176z M33.306,46.219
			c0.102-0.479,0.112-0.938,0.032-1.385l-6.326,1.115l1.394,1.133C30.009,46.801,31.702,46.5,33.306,46.219z M33.008,49.211
			c-0.011,0.459-0.216,0.865-0.405,1.355l-1.109-1.09C32.028,49.383,32.562,49.289,33.008,49.211z M33.7,7.288
			c-0.949-1.212-2.238-2.271-3.192-2.472l-4.989,0.883c0.456,1.02,0.67,1.719,1.053,2.846C28.888,8.136,31.384,7.694,33.7,7.288z
			 M25.262,8.406c-0.781-0.78-1.515-1.294-2.338-1.79l-5.079,0.895c0.215,0.696,0.503,1.29,0.645,2.092L25.262,8.406z M25.031,4.498
			c1.158-0.204,2.406-0.426,3.475-0.613c-1.347-0.866-2.897-1.327-4.653-1.385C24.514,3.12,24.743,3.905,25.031,4.498z
			 M19.607,4.996c-1.315-0.688-2.373-0.96-3.773-1.079c0.362,0.485,0.634,0.986,0.921,1.58L19.607,4.996z M10.885,6.073
			c-1.09-0.451-1.954-0.665-3.07-0.746c0.345,0.4,0.499,0.738,0.665,1.171L10.885,6.073z"/>
		<path fill="#FDD000" d="M43.587,10.846c7.455-1.915,12.945-1.767,14.247,0.889c2.235,4.563-6.308,15.652-22.017,23.689
			C20.108,43.463,3.026,45.49,0.789,40.926c-0.866-1.764,0.251-4.387,2.855-7.406c-0.763,1.479-0.96,2.789-0.485,3.836
			c2.016,4.453,15.389,2.547,29.767-4.246c14.381-6.793,24.465-15.967,22.45-20.42C54.274,10.257,49.782,9.722,43.587,10.846z"/>
		<path fill="#0071BE" d="M12.806,60.463c-2.077-0.004-3.203,0.02-5.288,0.02c0,0.563,0,1.258,0,1.824c1.8,0,3.597,0,5.394,0
			c3.778-0.209,3.485-5.826-0.005-5.826c-1.104,0-1.876,0-2.984,0c-1.339-0.518-0.467-1.787,1.099-1.633c1.453,0,2.573,0,4.021,0
			c0-0.566,0-1.195,0-1.76c-1.448,0-2.9,0-4.353,0c-4.15,0-4.561,4.986-1.1,5.217c1.299,0,1.99,0,3.228,0
			C13.982,58.305,13.986,60.156,12.806,60.463"/>
		<polygon fill="#0071BE" points="32.319,53.088 30.156,53.088 30.156,59.191 26.681,53.07 24.514,53.07 24.514,62.297 
			26.681,62.297 26.681,56.188 30.355,62.307 32.319,62.307 		"/>
		<polygon fill="#0071BE" points="23.347,62.307 23.347,60.48 19.053,60.48 19.053,58.371 23.342,58.371 23.342,56.547 
			19.053,56.547 19.053,54.848 23.342,54.848 23.342,53.088 16.886,53.088 16.886,58.236 16.886,58.236 16.886,61.334 
			16.892,61.334 16.892,62.307 		"/>
		<path fill="#0071BE" d="M46.916,52.887c-2.556,0-4.64,2.156-4.64,4.807c0,2.648,2.084,4.807,4.64,4.807
			c2.558,0,4.642-2.158,4.642-4.807C51.558,55.043,49.474,52.887,46.916,52.887z M46.916,60.527c-1.474,0-2.677-1.273-2.677-2.834
			c0-1.564,1.203-2.834,2.677-2.834c1.476,0,2.678,1.27,2.678,2.834C49.594,59.254,48.392,60.527,46.916,60.527z"/>
		<polygon fill="#0071BE" points="40.03,62.303 42.243,62.303 38.991,53.076 36.612,53.076 33.161,62.268 35.395,62.268 
			37.786,55.6 		"/>
	</g>
	<g>
		<path fill="#0071BE" d="M331.76,55.987v1.451h1.448v-1.451H331.76z M330.651,57.993v-2.561v-0.555h0.555h2.559h0.555v0.555v2.561
			v0.555h-0.555h-2.559h-0.555V57.993z M318.301,44.756l0.002-0.002 M326.569,53.897l-1.101-0.145
			c-0.086,0.396-0.201,0.758-0.347,1.078c-0.217,0.485-0.504,0.891-0.856,1.211h-0.002c-0.351,0.319-0.742,0.561-1.174,0.721
			c-0.431,0.158-0.898,0.238-1.404,0.238c-0.627,0-1.2-0.117-1.719-0.353c-0.257-0.117-0.502-0.267-0.734-0.442v0.002
			c-0.227-0.174-0.438-0.379-0.635-0.607l-0.002-0.006l-0.002-0.002v0.002c-0.396-0.467-0.69-1.066-0.884-1.795
			c-0.186-0.697-0.274-1.512-0.274-2.447c0-1.34,0.199-2.437,0.601-3.284c0.082-0.174,0.172-0.336,0.268-0.486
			c0.098-0.149,0.205-0.295,0.322-0.43l0.004-0.007l0.002-0.002c0.41-0.47,0.883-0.824,1.416-1.06
			c0.531-0.233,1.119-0.352,1.764-0.352c0.629,0,1.197,0.139,1.705,0.415c0.102,0.056,0.197,0.114,0.289,0.176
			c0.096,0.065,0.188,0.136,0.271,0.206l0.004,0.006l0.006,0.006c0.316,0.269,0.582,0.602,0.797,0.994
			c0.137,0.245,0.25,0.518,0.348,0.813l1.105-0.17c-0.113-0.387-0.258-0.735-0.438-1.053c-0.258-0.453-0.588-0.84-0.989-1.16
			c-0.338-0.27-0.715-0.481-1.131-0.637c-0.08-0.031-0.164-0.061-0.25-0.088h-0.005c-0.534-0.166-1.135-0.251-1.793-0.251v0.003
			h-0.01c-0.75,0-1.461,0.125-2.123,0.377c-0.127,0.047-0.256,0.103-0.386,0.161c-0.133,0.062-0.258,0.125-0.375,0.189l-0.004,0.002
			l-0.008,0.005v0.001c-0.432,0.237-0.807,0.535-1.123,0.89c-0.321,0.356-0.59,0.778-0.805,1.262v0.002
			c-0.184,0.418-0.33,0.863-0.436,1.334c-0.018,0.076-0.039,0.173-0.059,0.281v0.002l0,0c-0.113,0.594-0.173,1.229-0.173,1.901
			h0.003v0.016c0,1.498,0.264,2.736,0.788,3.713c0.103,0.188,0.212,0.365,0.328,0.531c0.119,0.164,0.248,0.322,0.386,0.471
			l0.004,0.002l0.004,0.007c0.987,1.063,2.313,1.598,3.963,1.598c0.947,0,1.781-0.198,2.504-0.596
			c0.145-0.08,0.283-0.166,0.406-0.254c0.133-0.093,0.262-0.191,0.387-0.3l0.002-0.004l0.006-0.004l0,0
			c0.637-0.551,1.102-1.258,1.395-2.117l0,0c0.06-0.174,0.111-0.352,0.154-0.53L326.569,53.897z M325.088,52.589l2.206,0.291
			l0.564,0.072l-0.089,0.559l-0.002,0.018v0.002c-0.037,0.229-0.082,0.449-0.133,0.662c-0.054,0.217-0.113,0.426-0.181,0.625v0.002
			c-0.356,1.049-0.932,1.918-1.723,2.6l-0.002,0.002l-0.006,0.007v-0.002c-0.152,0.133-0.313,0.256-0.475,0.368
			c-0.17,0.119-0.34,0.226-0.506,0.316c-0.892,0.49-1.902,0.736-3.037,0.736c-1.969,0-3.566-0.652-4.775-1.955l-0.002-0.002
			l-0.004-0.006c-0.17-0.182-0.328-0.377-0.475-0.582c-0.146-0.207-0.281-0.422-0.402-0.646c-0.613-1.143-0.924-2.557-0.924-4.238
			v-0.016h0.004c0-0.752,0.063-1.455,0.188-2.106v-0.002c0.018-0.092,0.041-0.198,0.066-0.319c0.125-0.548,0.293-1.062,0.502-1.537
			l0.002-0.002c0.262-0.587,0.592-1.104,0.992-1.552c0.404-0.451,0.877-0.826,1.414-1.123h0.002l0.008-0.004
			c0.152-0.084,0.303-0.161,0.447-0.229c0.146-0.068,0.301-0.133,0.457-0.191c0.793-0.301,1.633-0.45,2.514-0.45h0.01v0.002
			c0.777,0.001,1.484,0.102,2.123,0.299v0.001c0.104,0.032,0.207,0.068,0.311,0.105c0.529,0.199,1.008,0.471,1.433,0.809
			c0.515,0.406,0.937,0.9,1.267,1.48c0.321,0.569,0.557,1.221,0.696,1.948l0.108,0.563l-0.569,0.088l-2.187,0.337l-0.504,0.078
			l-0.117-0.5c-0.094-0.396-0.219-0.739-0.379-1.028c-0.149-0.275-0.334-0.507-0.545-0.688l-0.002-0.002l0,0
			c-0.063-0.053-0.125-0.101-0.186-0.142c-0.066-0.046-0.131-0.086-0.193-0.118c-0.338-0.186-0.73-0.277-1.176-0.277
			c-0.49,0-0.93,0.086-1.318,0.257c-0.385,0.169-0.727,0.426-1.022,0.767l0,0l-0.005,0.006l-0.002,0.002
			c-0.079,0.092-0.155,0.193-0.229,0.308c-0.072,0.112-0.139,0.233-0.199,0.36c-0.328,0.693-0.492,1.633-0.492,2.813
			c0,0.847,0.08,1.567,0.236,2.166c0.15,0.565,0.369,1.021,0.658,1.36l0.002,0.005l0.002,0.002l0.002-0.002
			c0.143,0.172,0.299,0.319,0.461,0.444l0.002,0.002c0.158,0.121,0.332,0.226,0.516,0.31c0.371,0.168,0.793,0.252,1.265,0.252
			c0.377,0,0.718-0.058,1.021-0.168c0.304-0.111,0.574-0.277,0.813-0.498v-0.002c0.24-0.218,0.438-0.502,0.595-0.849
			c0.166-0.366,0.284-0.807,0.356-1.313l0.073-0.543L325.088,52.589z M301.286,45.293v12.146h1.144v-6.685h-0.004
			c0-0.899,0.096-1.666,0.282-2.295c0.203-0.676,0.521-1.203,0.947-1.578l0.002-0.002c0.4-0.348,0.84-0.609,1.313-0.784
			c0.478-0.175,0.983-0.265,1.528-0.265c0.343,0,0.668,0.041,0.979,0.121c0.313,0.084,0.604,0.207,0.873,0.369l0,0
			c0.392,0.236,0.703,0.537,0.931,0.897v0.003c0.045,0.07,0.088,0.145,0.123,0.218c0.039,0.077,0.073,0.155,0.104,0.231l0.002,0.007
			l0.002,0.003h0.002c0.102,0.27,0.18,0.598,0.227,0.984c0.047,0.365,0.068,0.789,0.068,1.266v7.509h1.141v-7.595
			c0-0.725-0.02-1.283-0.057-1.676c-0.006-0.072-0.016-0.145-0.023-0.213c-0.008-0.06-0.018-0.119-0.026-0.172l-0.002-0.011l0,0
			c-0.063-0.29-0.146-0.556-0.244-0.794c-0.099-0.232-0.221-0.451-0.366-0.652l-0.003-0.007c-0.129-0.184-0.299-0.354-0.506-0.51
			c-0.215-0.161-0.469-0.306-0.767-0.435l0,0c-0.293-0.125-0.606-0.222-0.938-0.285v-0.002c-0.327-0.063-0.676-0.096-1.043-0.096
			c-1.187,0-2.162,0.331-2.935,0.993l0,0c-0.149,0.13-0.293,0.272-0.43,0.427c-0.139,0.157-0.27,0.33-0.391,0.512l0,0l-0.002,0.006
			l-1.016,1.523v-1.83v-1.332h-0.916V45.293z M300.184,57.993V44.742v-0.554h0.554h2.02h0.553v0.554v0.414l0.01-0.007l0.002-0.002
			c0.979-0.842,2.197-1.263,3.652-1.263c0.434,0,0.852,0.039,1.254,0.117h0.002c0.402,0.078,0.791,0.199,1.162,0.356h0.002
			c0.377,0.162,0.709,0.353,0.994,0.567c0.291,0.219,0.537,0.47,0.738,0.752v-0.001c0.191,0.262,0.354,0.554,0.488,0.872
			c0.133,0.313,0.233,0.646,0.309,0.994l0.002,0.015l0.006,0.026c0.012,0.064,0.023,0.142,0.035,0.224
			c0.01,0.075,0.02,0.161,0.027,0.256c0.045,0.454,0.065,1.047,0.065,1.779v8.148v0.555h-0.555h-2.248l-0.556-0.002v-0.553v-8.063
			c0-0.435-0.02-0.813-0.061-1.132c-0.037-0.297-0.092-0.539-0.164-0.726v-0.004v-0.001c-0.018-0.049-0.039-0.095-0.059-0.136
			c-0.021-0.044-0.047-0.087-0.072-0.126v0.001c-0.133-0.212-0.322-0.394-0.566-0.539v-0.002c-0.178-0.106-0.371-0.19-0.578-0.244
			c-0.211-0.056-0.444-0.082-0.701-0.082c-0.414,0-0.797,0.065-1.146,0.194c-0.351,0.128-0.674,0.322-0.969,0.578l-0.004,0.002
			c-0.265,0.232-0.47,0.588-0.609,1.061c-0.157,0.521-0.235,1.184-0.235,1.979h-0.002v7.238v0.556h-0.554h-2.243h-0.554V57.993
			L300.184,57.993z M293.469,40.252v17.187h1.312V40.252H293.469z M292.36,57.993V39.698v-0.555h0.555h2.418h0.555v0.555v18.295
			v0.555h-0.555h-2.418h-0.555V57.993z M273.475,55.987v1.451h0.72h0.569l-0.019,0.572c-0.014,0.416-0.055,0.783-0.123,1.102
			c-0.073,0.342-0.182,0.639-0.321,0.891l-0.002,0.002c-0.187,0.332-0.437,0.609-0.746,0.834l0.032,0.054
			c0.257-0.154,0.476-0.33,0.65-0.529c0.053-0.061,0.103-0.118,0.144-0.178c0.036-0.051,0.079-0.115,0.122-0.188h0.003
			c0.135-0.236,0.237-0.519,0.309-0.845c0.076-0.34,0.113-0.727,0.113-1.157v-2.007L273.475,55.987L273.475,55.987z M272.366,57.993
			v-2.561v-0.555h0.555h2.561h0.553v0.555v2.561c0,0.51-0.045,0.976-0.137,1.394c-0.094,0.426-0.236,0.809-0.432,1.149h0.002
			l-0.002,0.006l-0.01,0.017c-0.051,0.086-0.111,0.18-0.185,0.276c-0.065,0.093-0.137,0.181-0.207,0.261
			c-0.375,0.422-0.856,0.766-1.442,1.024l-0.43,0.189l-0.259-0.395l-0.627-0.963l-0.358-0.552l0.606-0.26h-0.002
			c0.063-0.027,0.112-0.052,0.149-0.072s0.084-0.049,0.138-0.084c0.215-0.141,0.381-0.313,0.495-0.519v-0.002
			c0.084-0.151,0.152-0.348,0.203-0.584c0.023-0.104,0.041-0.217,0.058-0.334h-0.676l-0.556-0.002v-0.551H272.366z M259.018,54.315
			l-1.114,0.174c0.176,0.67,0.444,1.236,0.807,1.695c0.088,0.113,0.182,0.219,0.277,0.314c0.102,0.102,0.202,0.192,0.305,0.274
			v-0.002l0.01,0.008l0.004,0.005c0.393,0.311,0.881,0.547,1.465,0.706v-0.004c0.613,0.168,1.326,0.252,2.133,0.252v-0.002
			c0.695,0,1.334-0.084,1.912-0.252c0.113-0.032,0.225-0.069,0.332-0.108c0.1-0.035,0.207-0.078,0.318-0.127l0.004-0.002
			l0.006-0.002v-0.002c0.367-0.162,0.689-0.355,0.963-0.576c0.271-0.22,0.5-0.472,0.688-0.754l0,0
			c0.191-0.291,0.334-0.588,0.427-0.886v-0.002c0.092-0.297,0.14-0.604,0.14-0.928c0-0.336-0.037-0.64-0.111-0.906
			c-0.072-0.258-0.183-0.491-0.324-0.698c-0.213-0.306-0.484-0.563-0.814-0.765h-0.002c-0.072-0.045-0.143-0.084-0.203-0.115
			c-0.07-0.036-0.145-0.071-0.219-0.104l-0.006-0.003l-0.004-0.004c-0.293-0.127-0.709-0.272-1.244-0.44
			c-0.541-0.17-1.209-0.361-2.002-0.573h-0.002c-0.781-0.213-1.348-0.372-1.693-0.478l-0.002-0.002l-0.176-0.055l-0.01-0.004
			l-0.125-0.041l-0.01-0.004l-0.008-0.002l-0.027-0.012c-0.234-0.098-0.441-0.205-0.613-0.326c-0.186-0.128-0.342-0.275-0.471-0.443
			l0,0c-0.129-0.166-0.229-0.343-0.295-0.528c-0.066-0.191-0.103-0.392-0.103-0.601c0-0.461,0.158-0.879,0.474-1.25
			c0.057-0.066,0.119-0.134,0.188-0.199c0.072-0.067,0.144-0.129,0.211-0.182l0.009-0.004c0.539-0.418,1.389-0.628,2.545-0.628
			c0.705,0,1.307,0.115,1.805,0.347l0.002,0.002c0.104,0.049,0.201,0.102,0.289,0.154c0.098,0.061,0.188,0.123,0.27,0.188v0.002
			l0.006,0.007h0.002c0.295,0.237,0.535,0.522,0.715,0.854c0.095,0.174,0.172,0.359,0.234,0.558l1.107-0.153
			c-0.045-0.175-0.098-0.338-0.154-0.491l0,0c-0.111-0.294-0.246-0.551-0.404-0.77l0,0c-0.152-0.206-0.346-0.394-0.584-0.558l0,0
			c-0.254-0.177-0.557-0.332-0.904-0.463c-0.297-0.111-0.614-0.203-0.959-0.271v-0.001l-0.205-0.037l0,0
			c-0.428-0.071-0.883-0.108-1.362-0.108v0.002h-0.019V44.99c-0.315,0-0.627,0.021-0.928,0.063v0.001
			c-0.295,0.041-0.582,0.103-0.857,0.184l0,0c-0.389,0.116-0.719,0.251-0.983,0.399h-0.002c-0.045,0.023-0.095,0.053-0.142,0.083
			l-0.004,0.002v-0.001c-0.03,0.02-0.071,0.05-0.123,0.087l-0.002-0.001l-0.008,0.007c-0.281,0.202-0.522,0.44-0.721,0.718
			c-0.041,0.061-0.08,0.115-0.111,0.166c-0.024,0.04-0.059,0.102-0.1,0.178l-0.004,0.004l-0.002,0.006
			c-0.113,0.208-0.199,0.427-0.256,0.654v0.002c-0.057,0.228-0.086,0.467-0.086,0.72c0,0.392,0.072,0.758,0.211,1.094
			c0.025,0.062,0.057,0.127,0.09,0.196l0,0c0.027,0.056,0.063,0.117,0.102,0.183l0.006,0.009l0.004,0.008
			c0.193,0.314,0.455,0.584,0.781,0.805c0.063,0.042,0.133,0.085,0.205,0.126c0.074,0.043,0.148,0.08,0.215,0.113l0.002-0.002
			l0.006,0.004l0.008,0.005c0.294,0.142,0.714,0.298,1.259,0.47c0.56,0.176,1.246,0.367,2.062,0.572
			c0.629,0.158,1.141,0.303,1.53,0.432c0.429,0.141,0.74,0.273,0.935,0.4l0.002,0.004c0.608,0.402,0.914,0.951,0.914,1.662
			c0,0.527-0.168,1.008-0.502,1.438c-0.064,0.082-0.133,0.162-0.207,0.238c-0.072,0.073-0.15,0.147-0.232,0.217l-0.004,0.004
			l-0.004,0.002v0.003c-0.258,0.217-0.572,0.389-0.939,0.514c-0.059,0.02-0.129,0.041-0.211,0.063
			c-0.428,0.119-0.924,0.179-1.486,0.181v0.002h-0.014v-0.002c-0.822,0-1.523-0.142-2.096-0.42v-0.002
			c-0.111-0.054-0.223-0.117-0.332-0.188c-0.107-0.068-0.211-0.144-0.309-0.226l-0.008-0.004v-0.002l0,0
			c-0.345-0.285-0.621-0.633-0.828-1.041C259.194,54.872,259.092,54.604,259.018,54.315z M257.155,53.491l2.219-0.35l0.555-0.088
			l0.078,0.557c0.053,0.381,0.152,0.717,0.299,1.006c0.141,0.271,0.324,0.506,0.551,0.695l0.006,0.004l0.006,0.006l0,0
			c0.06,0.049,0.123,0.096,0.189,0.137c0.066,0.043,0.141,0.086,0.223,0.125h0.002c0.424,0.207,0.961,0.312,1.609,0.312v-0.002
			h0.014v0.002c0.459,0,0.857-0.047,1.191-0.142c0.041-0.01,0.094-0.026,0.152-0.047c0.231-0.08,0.428-0.186,0.584-0.313h0.002
			l0.002-0.002h-0.002c0.057-0.047,0.109-0.099,0.154-0.146c0.047-0.047,0.088-0.096,0.125-0.143c0.178-0.23,0.27-0.486,0.27-0.764
			c0-0.313-0.139-0.558-0.414-0.738l0,0c-0.111-0.072-0.338-0.164-0.676-0.275c-0.375-0.123-0.859-0.26-1.451-0.408
			c-0.83-0.211-1.537-0.407-2.121-0.592c-0.592-0.188-1.059-0.361-1.4-0.524h-0.002l-0.004-0.003l-0.002-0.002h-0.002v-0.002
			l-0.004-0.002c-0.105-0.051-0.203-0.102-0.291-0.149c-0.094-0.054-0.186-0.108-0.275-0.17c-0.459-0.31-0.828-0.692-1.104-1.143
			l-0.006-0.009l-0.005-0.006c-0.049-0.08-0.098-0.17-0.146-0.267l-0.002-0.002c-0.043-0.084-0.086-0.176-0.125-0.273
			c-0.196-0.475-0.297-0.98-0.297-1.514c0-0.34,0.039-0.67,0.119-0.988l0,0c0.08-0.316,0.198-0.622,0.356-0.916v-0.001
			c0.033-0.063,0.08-0.144,0.14-0.237c0.051-0.082,0.103-0.16,0.149-0.228c0.269-0.377,0.596-0.702,0.979-0.978l0.002-0.002
			c0.045-0.031,0.106-0.074,0.185-0.123l0.002-0.002c0.057-0.035,0.123-0.074,0.192-0.115l0,0c0.336-0.188,0.74-0.354,1.211-0.493
			h0.002c0.328-0.097,0.668-0.171,1.021-0.22h0.002c0.344-0.047,0.703-0.07,1.076-0.07v-0.002h0.018v0.002
			c0.551,0.001,1.066,0.042,1.545,0.121l0.006,0.002l0.221,0.039h0.008c0.398,0.08,0.777,0.188,1.138,0.324
			c0.438,0.166,0.821,0.362,1.147,0.59v0.002c0.342,0.236,0.623,0.51,0.847,0.813l0.002,0.002c0.215,0.297,0.396,0.641,0.543,1.029
			v0.001c0.142,0.376,0.25,0.796,0.323,1.259l0.093,0.559l-0.562,0.078l-2.193,0.303l-0.543,0.074l-0.082-0.541
			c-0.04-0.277-0.116-0.521-0.229-0.728c-0.108-0.2-0.256-0.374-0.436-0.521l0,0l-0.005-0.004l-0.002,0.002
			c-0.051-0.043-0.104-0.08-0.155-0.11c-0.06-0.036-0.119-0.069-0.179-0.097h-0.002c-0.348-0.162-0.795-0.242-1.34-0.242
			c-0.906,0-1.531,0.132-1.869,0.395l-0.004,0.002l0.002,0.002c-0.055,0.043-0.102,0.08-0.135,0.111
			c-0.035,0.034-0.07,0.07-0.102,0.107c-0.139,0.164-0.209,0.344-0.209,0.535c0,0.086,0.012,0.164,0.037,0.232
			c0.025,0.076,0.066,0.148,0.119,0.216l0.006,0.007c0.053,0.07,0.129,0.141,0.229,0.209c0.107,0.075,0.236,0.145,0.383,0.205
			l0.014,0.006l0.091,0.03v-0.001l0.172,0.055v-0.002c0.332,0.102,0.888,0.258,1.664,0.469l0,0c0.795,0.213,1.478,0.408,2.041,0.586
			c0.569,0.179,1.022,0.341,1.356,0.484l0.002,0.002c0.101,0.043,0.199,0.09,0.293,0.137c0.103,0.055,0.195,0.106,0.275,0.155v0.002
			c0.463,0.284,0.846,0.646,1.145,1.077c0.216,0.31,0.375,0.654,0.48,1.033c0.104,0.371,0.156,0.772,0.156,1.201
			c0,0.43-0.064,0.848-0.191,1.256l0,0c-0.127,0.403-0.313,0.793-0.555,1.166l-0.002,0.002c-0.252,0.377-0.557,0.711-0.916,1.002
			c-0.355,0.289-0.76,0.533-1.215,0.731l-0.006,0.002l-0.008,0.005l0,0l-0.004,0.002h-0.002c-0.117,0.051-0.244,0.103-0.382,0.149
			c-0.131,0.049-0.264,0.092-0.396,0.131c-0.688,0.201-1.43,0.302-2.221,0.302v-0.005c-0.916,0-1.726-0.094-2.422-0.284v-0.002
			c-0.728-0.197-1.347-0.498-1.855-0.9l0,0l-0.01-0.008l-0.006-0.006c-0.148-0.119-0.283-0.24-0.406-0.363
			c-0.131-0.131-0.252-0.268-0.363-0.409c-0.572-0.726-0.955-1.64-1.146-2.736l-0.098-0.555L257.155,53.491z M244.499,40.252v17.187
			h1.142v-4.697v-0.234l0.172-0.163l1.584-1.525l0.484-0.466l0.364,0.564l4.213,6.521h1.437l-5.002-7.476l-0.258-0.383l0.332-0.319
			l4.086-3.968h-1.312l-5.151,5.225l-0.949,0.962v-1.351v-9.877H244.499z M243.393,57.993V39.698l-0.002-0.555h0.558h2.248h0.555
			v0.555v9.082l4.367-4.427l0.162-0.165h0.231h2.903h1.363l-0.979,0.949l-4.734,4.595l5.324,7.952l0.576,0.863h-1.035h-2.773h-0.301
			l-0.164-0.256l-4.014-6.211l-0.93,0.893v5.02v0.555h-0.555h-2.248l-0.558-0.002L243.393,57.993z M234.534,45.293v12.146h1.141
			v-6.385h-0.002c0-0.496,0.033-0.979,0.1-1.445s0.166-0.913,0.301-1.339l0.002-0.002c0.101-0.313,0.232-0.594,0.402-0.844
			c0.174-0.256,0.383-0.478,0.623-0.66l0.004-0.002c0.244-0.184,0.504-0.322,0.781-0.415c0.279-0.095,0.572-0.142,0.875-0.142
			c0.447,0,0.896,0.092,1.342,0.273l0.396-1.066c-0.219-0.108-0.435-0.197-0.646-0.265c-0.328-0.103-0.656-0.155-0.98-0.155
			c-0.293,0-0.567,0.062-0.821,0.18l-0.002-0.002c-0.052,0.024-0.103,0.052-0.147,0.078l-0.002,0.002
			c-0.054,0.029-0.101,0.059-0.142,0.086l0.002,0.002l-0.009,0.005l-0.01,0.005c-0.168,0.113-0.354,0.306-0.559,0.568
			c-0.219,0.283-0.451,0.65-0.697,1.098l-1.039,1.89v-2.155v-1.455H234.534L234.534,45.293z M233.428,57.993V44.742v-0.554h0.553
			h2.021h0.555v0.554v0.198c0.186-0.208,0.373-0.376,0.559-0.502v-0.001l0.006-0.005l0.011-0.005
			c0.077-0.053,0.153-0.102,0.223-0.139c0.076-0.045,0.154-0.084,0.229-0.119v-0.002c0.404-0.188,0.834-0.283,1.291-0.283
			c0.432,0,0.869,0.068,1.309,0.207c0.428,0.135,0.857,0.335,1.287,0.599l0.389,0.238l-0.158,0.427l-0.774,2.088l-0.231,0.623
			l-0.568-0.342l-0.01-0.006c-0.072-0.043-0.138-0.079-0.195-0.109c-0.049-0.023-0.115-0.056-0.197-0.091v-0.001
			c-0.318-0.135-0.639-0.203-0.959-0.203c-0.189,0-0.363,0.027-0.525,0.081c-0.162,0.056-0.317,0.138-0.463,0.246v0.001
			c-0.15,0.113-0.277,0.248-0.381,0.4c-0.107,0.16-0.195,0.345-0.264,0.556h0.002c-0.117,0.37-0.203,0.76-0.262,1.166
			c-0.06,0.403-0.086,0.835-0.086,1.289h-0.004v6.939v0.555h-0.551h-2.246h-0.554v-0.555H233.428z M219.59,53.747
			c-0.201-0.686-0.302-1.479-0.302-2.383h-0.002c0-1.299,0.211-2.377,0.631-3.231h-0.002c0.082-0.17,0.179-0.334,0.281-0.491
			c0.105-0.159,0.217-0.308,0.334-0.438l0,0h0.002l0.006-0.007c0.354-0.399,0.746-0.718,1.179-0.952
			c0.094-0.051,0.183-0.095,0.26-0.131c0.535-0.24,1.123-0.363,1.765-0.363v-0.002h0.006v0.002c0.635,0,1.221,0.121,1.756,0.364
			c0.531,0.243,1.012,0.605,1.438,1.087c0.428,0.482,0.746,1.074,0.953,1.772c0.201,0.674,0.303,1.448,0.303,2.318
			c0,1.33-0.209,2.433-0.627,3.297c-0.084,0.175-0.178,0.341-0.279,0.496c-0.1,0.156-0.211,0.304-0.33,0.441l0,0l-0.006,0.006
			l-0.004,0.004c-0.354,0.404-0.746,0.728-1.176,0.963c-0.076,0.043-0.162,0.086-0.26,0.131c-0.535,0.244-1.121,0.367-1.76,0.369
			v0.002h-0.008c-0.922,0-1.738-0.252-2.443-0.758l0,0c-0.139-0.1-0.27-0.207-0.395-0.32c-0.121-0.11-0.244-0.235-0.365-0.372
			l-0.006-0.007C220.114,55.063,219.797,54.464,219.59,53.747z M220.393,51.364c0,0.797,0.086,1.488,0.259,2.074
			c0.159,0.553,0.399,1.012,0.719,1.373l-0.002,0.002l0.006,0.006c0.086,0.098,0.18,0.193,0.279,0.285
			c0.098,0.088,0.194,0.168,0.295,0.238h0.002c0.512,0.367,1.11,0.549,1.797,0.549h0.008v0.002c0.475,0,0.91-0.09,1.301-0.27
			c0.053-0.023,0.115-0.058,0.186-0.095c0.316-0.176,0.607-0.416,0.873-0.717l0.006-0.006l0.002-0.002
			c0.084-0.099,0.166-0.207,0.24-0.322c0.074-0.114,0.146-0.242,0.209-0.375c0.344-0.711,0.517-1.649,0.517-2.815
			c0-0.769-0.087-1.438-0.255-2.005c-0.161-0.543-0.403-0.996-0.721-1.355c-0.32-0.363-0.678-0.635-1.07-0.813
			c-0.389-0.179-0.819-0.268-1.295-0.268v0.002h-0.006v-0.002c-0.477,0-0.912,0.091-1.309,0.27c-0.07,0.032-0.133,0.063-0.186,0.092
			c-0.318,0.173-0.609,0.408-0.873,0.707l0,0l-0.006,0.007l-0.004,0.007c-0.09,0.102-0.17,0.208-0.242,0.316
			c-0.074,0.109-0.146,0.232-0.209,0.367l-0.002,0.002c-0.342,0.695-0.515,1.612-0.515,2.744L220.393,51.364L220.393,51.364z
			 M218.083,51.354h0.005v0.01c0,1.064,0.131,1.996,0.396,2.791v-0.002c0.26,0.779,0.648,1.436,1.162,1.969
			c0.52,0.541,1.117,0.943,1.791,1.211c0.678,0.271,1.449,0.404,2.309,0.404c0.537,0,1.049-0.063,1.535-0.186
			s0.955-0.309,1.402-0.555l0,0c0.633-0.351,1.156-0.802,1.57-1.351c0.078-0.104,0.154-0.217,0.23-0.336
			c0.067-0.108,0.137-0.229,0.204-0.358v0.002l0.005-0.011c0.229-0.438,0.403-0.965,0.521-1.58c0.118-0.633,0.18-1.362,0.18-2.188
			c0-0.992-0.133-1.87-0.399-2.633c-0.26-0.746-0.652-1.39-1.176-1.928v-0.002c-0.437-0.451-0.927-0.81-1.468-1.07
			c-0.104-0.053-0.215-0.101-0.321-0.144c-0.679-0.272-1.438-0.41-2.273-0.41v0.003h-0.01c-1.082,0-2.043,0.231-2.877,0.691
			c-0.168,0.093-0.326,0.189-0.474,0.293v0.001c-0.151,0.104-0.301,0.222-0.446,0.349h-0.002l-0.007,0.004l0,0
			c-0.51,0.439-0.913,0.982-1.213,1.627c-0.063,0.135-0.118,0.267-0.166,0.393v0.002C218.243,49.198,218.085,50.201,218.083,51.354z
			 M216.979,51.364v-0.01h0.002c0-1.291,0.185-2.423,0.548-3.392l0,0c0.063-0.168,0.129-0.325,0.194-0.469
			c0.365-0.787,0.865-1.455,1.498-2v-0.002l0.006-0.005v-0.001c0.173-0.148,0.353-0.288,0.537-0.417v0.002
			c0.19-0.134,0.383-0.253,0.571-0.356c1.003-0.553,2.14-0.83,3.41-0.83h0.011v0.002c0.979,0.001,1.877,0.162,2.687,0.488
			c0.135,0.054,0.266,0.111,0.391,0.172c0.658,0.318,1.252,0.752,1.781,1.3c0.635,0.653,1.11,1.434,1.426,2.334
			c0.311,0.886,0.465,1.886,0.465,2.996c0,0.885-0.068,1.682-0.203,2.391c-0.137,0.725-0.348,1.357-0.629,1.893v0.004
			c-0.074,0.144-0.16,0.289-0.252,0.438c-0.086,0.136-0.182,0.273-0.283,0.408c-0.51,0.678-1.15,1.229-1.918,1.655l-0.002,0.003
			c-0.531,0.293-1.086,0.512-1.666,0.657c-0.578,0.146-1.18,0.222-1.805,0.222c-0.99,0-1.898-0.164-2.717-0.488
			c-0.824-0.325-1.552-0.815-2.179-1.469c-0.631-0.654-1.104-1.449-1.414-2.386v-0.002C217.131,53.587,216.979,52.54,216.979,51.364
			z M202.635,55.366l-0.5,2.072h0.726l2.569-9.784l0.574-2.181l0.502,2.2l0.51,2.242l1.998,7.521h1.5l3.797-12.145h-1.021
			l-2.151,7.262l-0.758,2.561l-0.563,1.898l-0.504-1.916l-0.664-2.533l-1.877-7.271h-1.457l-1.998,7.354l0,0l-0.352,1.397
			l-0.328,1.313h-0.002L202.635,55.366z M197.631,45.295l3.717,12.144h0.783l-0.566-2.057l-0.78-2.842h-0.002l-1.996-7.245H197.631z
			 M200.409,58.153l-4.055-13.252l-0.219-0.715h0.748h2.32h0.42l0.113,0.407l2.108,7.651v0.002l0.226,0.815l0.174-0.694l0.002-0.011
			l2.108-7.763l0.111-0.409h0.424h2.31h0.428l0.107,0.416l1.983,7.687l0.162,0.616l0.194-0.661l2.271-7.659l0.119-0.397h0.411h2.187
			h0.753l-0.226,0.719l-4.146,13.252l-0.121,0.391h-0.406h-2.329h-0.427l-0.108-0.413l-2.108-7.938l-0.004-0.02l-0.015-0.063
			l-2.104,8.019l-0.109,0.414h-0.426h-2.349h-0.407L200.409,58.153z M194.566,57.521l-0.15-0.926l-0.043,0.004v0.002h-0.002
			c-0.195,0.018-0.356,0.025-0.481,0.025c-0.294,0-0.551-0.037-0.767-0.111v-0.002c-0.049-0.016-0.094-0.033-0.135-0.049
			l-0.002-0.004c-0.053-0.021-0.099-0.045-0.135-0.066l-0.008-0.004l-0.016-0.01c-0.131-0.082-0.25-0.18-0.353-0.297
			c-0.101-0.113-0.185-0.244-0.248-0.39l-0.006-0.01c-0.06-0.142-0.101-0.345-0.125-0.608c-0.021-0.222-0.03-0.5-0.03-0.841h-0.003
			v-7.748v-0.554h0.556h1.705v-0.64h-1.705h-0.556v-0.554V41.09l-1.127,0.68v2.973v0.551h-0.555h-1.097v0.644h1.097l0.555-0.001
			v0.553v7.625c0,0.927,0.044,1.617,0.13,2.066l0,0c0.016,0.084,0.032,0.155,0.049,0.217c0.017,0.058,0.033,0.104,0.047,0.14l0,0
			l0.002,0.004l0.002,0.006c0.095,0.217,0.24,0.408,0.438,0.567l0.004,0.002c0.033,0.029,0.075,0.062,0.123,0.093l0.004,0.004
			c0.039,0.026,0.088,0.057,0.141,0.088l0,0l0.006,0.004c0.173,0.1,0.39,0.176,0.648,0.229c0.272,0.055,0.601,0.084,0.976,0.084
			c0.231,0,0.478-0.016,0.733-0.047C194.346,57.556,194.455,57.538,194.566,57.521z M195.422,55.894l0.324,1.984l0.084,0.521
			l-0.519,0.108c-0.334,0.07-0.649,0.123-0.944,0.158c-0.308,0.037-0.596,0.056-0.863,0.056c-0.439,0-0.84-0.035-1.197-0.109
			c-0.365-0.073-0.688-0.188-0.962-0.346l0,0l-0.007-0.002l-0.018-0.011c-0.068-0.039-0.141-0.084-0.214-0.135l0,0
			c-0.063-0.043-0.133-0.096-0.2-0.149l0,0c-0.336-0.273-0.588-0.605-0.754-0.988l-0.004-0.008l-0.004-0.009
			c-0.035-0.082-0.066-0.174-0.095-0.271c-0.026-0.096-0.052-0.198-0.071-0.307v-0.002c-0.102-0.525-0.15-1.285-0.15-2.273v-7.07
			h-1.094l-0.554-0.002v-0.552v-1.745v-0.554h0.554h1.094v-2.731v-0.313l0.269-0.162l2.235-1.346l0.842-0.506v0.979v4.076h1.701
			h0.553v0.556v1.745v0.556h-0.553h-1.701v7.192h-0.004c0,0.305,0.011,0.551,0.027,0.74c0.014,0.146,0.028,0.24,0.047,0.283l0,0
			c0.016,0.033,0.037,0.066,0.061,0.094c0.025,0.029,0.063,0.061,0.109,0.088l0.016,0.01l0.001-0.002l0.038,0.016l0.008,0.002
			c0.1,0.035,0.236,0.054,0.412,0.054c0.124,0,0.253-0.008,0.385-0.021h0.002c0.137-0.012,0.313-0.033,0.523-0.063l0.535-0.078
			L195.422,55.894z M183.434,50.646h-7.398h-0.594l0.041-0.591c0.041-0.637,0.172-1.217,0.393-1.736
			c0.224-0.529,0.537-0.994,0.939-1.391c0.338-0.332,0.711-0.596,1.115-0.789l0.001,0.001c0.079-0.037,0.161-0.073,0.242-0.104
			c0.497-0.199,1.038-0.299,1.623-0.3v-0.002h0.009c0.938,0,1.756,0.261,2.455,0.78c0.135,0.102,0.266,0.212,0.389,0.33
			c0.122,0.115,0.241,0.244,0.357,0.384l0.003,0.004h0.001c0.389,0.464,0.668,1.083,0.834,1.853c0.029,0.143,0.057,0.293,0.08,0.447
			l0,0v0.002c0.021,0.135,0.039,0.295,0.057,0.479l0.002,0.002l0.004,0.03l0.053,0.602L183.434,50.646L183.434,50.646z
			 M176.66,49.537h6.144c-0.015-0.076-0.026-0.15-0.043-0.224c-0.126-0.588-0.327-1.048-0.599-1.372v-0.002l-0.006-0.006
			c-0.084-0.102-0.174-0.197-0.27-0.289c-0.094-0.089-0.189-0.17-0.286-0.242c-0.501-0.373-1.101-0.561-1.796-0.561h-0.009V46.84
			c-0.442,0-0.849,0.074-1.216,0.221c-0.06,0.021-0.117,0.049-0.174,0.076v0.002c-0.297,0.142-0.57,0.335-0.816,0.578
			c-0.301,0.294-0.533,0.639-0.697,1.029C176.789,48.989,176.713,49.252,176.66,49.537z M184.996,54.479l-1.232-0.152
			c-0.148,0.349-0.314,0.66-0.498,0.937c-0.268,0.397-0.572,0.727-0.916,0.979l0,0c-0.285,0.213-0.596,0.381-0.928,0.504v-0.002
			c-0.061,0.021-0.126,0.045-0.195,0.065v0.002c-0.398,0.123-0.834,0.187-1.301,0.188v0.002h-0.012
			c-0.625,0-1.205-0.111-1.734-0.334c-0.527-0.222-1.005-0.556-1.432-1l0,0c-0.601-0.623-1.01-1.435-1.226-2.429
			c-0.038-0.176-0.071-0.375-0.102-0.594c-0.027-0.207-0.05-0.416-0.062-0.625V52.02l-0.002-0.049l-0.033-0.584h0.584h9.344v-0.048
			h-0.002c0-1.479-0.268-2.71-0.803-3.689c-0.097-0.179-0.209-0.356-0.338-0.535c-0.123-0.173-0.255-0.334-0.393-0.479l-0.002-0.004
			l-0.006-0.006c-0.422-0.455-0.896-0.813-1.418-1.078c-0.098-0.049-0.201-0.096-0.309-0.142c-0.656-0.274-1.392-0.413-2.197-0.413
			v0.002h-0.01c-0.845,0-1.604,0.142-2.279,0.42c-0.666,0.276-1.262,0.694-1.783,1.252c-0.52,0.559-0.91,1.23-1.17,2.018
			c-0.268,0.804-0.402,1.736-0.402,2.798c0,1.02,0.133,1.918,0.396,2.695c0.258,0.76,0.643,1.41,1.154,1.945
			c0.426,0.448,0.916,0.805,1.467,1.063c0.105,0.051,0.219,0.099,0.334,0.144h-0.002c0.705,0.272,1.506,0.411,2.4,0.411v-0.002h0.01
			c1.024,0,1.909-0.176,2.654-0.522c0.143-0.066,0.279-0.141,0.415-0.221l0.003-0.002c0.137-0.082,0.266-0.168,0.387-0.259l0,0
			l0.004-0.004l0,0c0.438-0.332,0.812-0.735,1.114-1.209C184.684,55.204,184.854,54.856,184.996,54.479z M183.475,53.175
			l2.321,0.285l0.633,0.078l-0.165,0.614c-0.197,0.734-0.482,1.392-0.852,1.966c-0.371,0.577-0.834,1.077-1.381,1.491l-0.002,0.002
			l-0.009,0.007l-0.002,0.002c-0.157,0.116-0.317,0.227-0.479,0.321h-0.002c-0.162,0.099-0.334,0.188-0.512,0.271
			c-0.898,0.42-1.941,0.634-3.123,0.634h-0.01v-0.005c-1.036,0-1.971-0.161-2.801-0.483h-0.002c-0.137-0.053-0.27-0.11-0.401-0.174
			c-0.676-0.318-1.274-0.752-1.797-1.302c-0.625-0.655-1.093-1.44-1.401-2.354c-0.305-0.896-0.457-1.914-0.457-3.051
			c0-1.171,0.153-2.22,0.463-3.146c0.313-0.942,0.783-1.752,1.408-2.424c0.629-0.674,1.354-1.182,2.174-1.521
			c0.813-0.337,1.715-0.507,2.699-0.507h0.01v0.002c0.959,0.002,1.834,0.168,2.621,0.496c0.127,0.053,0.256,0.113,0.385,0.177
			c0.641,0.323,1.219,0.763,1.73,1.313l0.002,0.002l0.006,0.006c0.176,0.189,0.338,0.387,0.481,0.588
			c0.142,0.197,0.278,0.416,0.405,0.65c0.628,1.15,0.941,2.559,0.941,4.22l-0.003,0.009l-0.004,0.252v0.008l-0.01,0.351
			l-0.015,0.539h-0.537h-9.277l0.002,0.008c0.021,0.158,0.053,0.328,0.09,0.502c0.172,0.793,0.484,1.426,0.938,1.896V54.9
			c0.313,0.328,0.67,0.576,1.063,0.742c0.393,0.164,0.828,0.246,1.309,0.246h0.011v0.002c0.349,0,0.674-0.047,0.973-0.14h0.003
			c0.041-0.014,0.088-0.028,0.137-0.047l0.004-0.002c0.236-0.088,0.455-0.207,0.652-0.354l0.002-0.002
			c0.239-0.177,0.457-0.41,0.651-0.701c0.205-0.308,0.388-0.679,0.54-1.106l0.148-0.418L183.475,53.175z M130.764,55.544
			c-0.832-0.947-1.249-2.338-1.249-4.181h-0.003c0-1.3,0.211-2.38,0.633-3.234l0,0c0.088-0.178,0.182-0.34,0.279-0.488
			c0.105-0.159,0.217-0.307,0.334-0.439l0.001,0.002l0.001-0.002l0.006-0.006c0.352-0.398,0.745-0.717,1.178-0.951
			c0.092-0.052,0.182-0.096,0.26-0.132c0.533-0.241,1.123-0.362,1.764-0.364v-0.002h0.007c0.631,0,1.218,0.123,1.755,0.367
			c0.532,0.243,1.014,0.605,1.438,1.086c0.356,0.405,0.641,0.887,0.844,1.44c0.039,0.104,0.074,0.213,0.109,0.328
			c0.199,0.667,0.301,1.438,0.302,2.313h0.002v0.012c0,1.33-0.21,2.431-0.628,3.297c-0.082,0.175-0.178,0.341-0.277,0.496
			c-0.102,0.156-0.213,0.304-0.332,0.441h0.001l-0.005,0.006l-0.004,0.004c-0.354,0.404-0.746,0.728-1.178,0.963
			c-0.074,0.043-0.162,0.086-0.26,0.131c-0.533,0.244-1.121,0.367-1.759,0.369v0.002h-0.008c-0.922,0-1.737-0.252-2.442-0.758l0,0
			c-0.14-0.1-0.271-0.207-0.396-0.32c-0.119-0.108-0.239-0.231-0.355-0.366l0,0l-0.007-0.006L130.764,55.544z M130.619,51.364
			c0,1.559,0.326,2.709,0.977,3.447l-0.002,0.002l0.006,0.006c0.086,0.098,0.18,0.193,0.279,0.285
			c0.098,0.088,0.195,0.168,0.293,0.238h0.002c0.513,0.367,1.113,0.549,1.799,0.549h0.008v0.002c0.475,0,0.908-0.09,1.299-0.27
			c0.055-0.023,0.117-0.058,0.188-0.095c0.316-0.176,0.609-0.416,0.874-0.717l0,0l0.004-0.006l0.003-0.002
			c0.085-0.099,0.165-0.207,0.241-0.322c0.073-0.114,0.146-0.242,0.209-0.375c0.343-0.711,0.516-1.649,0.516-2.815V51.28h0.003
			c0-0.759-0.088-1.426-0.259-1.997c-0.024-0.086-0.056-0.175-0.088-0.262c-0.158-0.429-0.369-0.792-0.634-1.09
			c-0.319-0.363-0.676-0.635-1.067-0.813c-0.386-0.177-0.817-0.266-1.295-0.266h-0.007v-0.002c-0.477,0-0.913,0.091-1.309,0.27
			c-0.07,0.032-0.133,0.063-0.187,0.092c-0.317,0.173-0.608,0.408-0.873,0.707h0.001l-0.006,0.007l-0.004,0.007
			c-0.09,0.102-0.172,0.208-0.243,0.316c-0.079,0.119-0.149,0.242-0.211,0.367v0.002c-0.343,0.695-0.515,1.612-0.515,2.744
			L130.619,51.364L130.619,51.364z M128.311,51.354h0.002v0.01c0,1.064,0.135,1.994,0.398,2.789l0,0
			c0.26,0.779,0.648,1.436,1.162,1.969c0.518,0.539,1.115,0.943,1.789,1.211c0.68,0.271,1.451,0.404,2.311,0.404
			c0.535,0,1.048-0.063,1.535-0.186c0.486-0.123,0.953-0.309,1.402-0.555l0,0c0.631-0.351,1.156-0.802,1.567-1.351
			c0.078-0.104,0.156-0.217,0.229-0.336c0.068-0.108,0.139-0.229,0.205-0.358l0.002,0.002l0.004-0.007
			c0.229-0.438,0.402-0.967,0.521-1.584c0.121-0.633,0.183-1.362,0.183-2.188c0-0.992-0.133-1.87-0.4-2.633
			c-0.262-0.746-0.654-1.391-1.176-1.928l-0.002-0.002c-0.436-0.451-0.924-0.81-1.465-1.07c-0.107-0.053-0.215-0.101-0.322-0.144
			c-0.68-0.272-1.438-0.41-2.275-0.41v0.003h-0.008c-1.083,0-2.043,0.231-2.878,0.691c-0.169,0.093-0.327,0.189-0.474,0.293v0.001
			c-0.15,0.104-0.301,0.222-0.446,0.349h-0.001l-0.008,0.004l0,0c-0.51,0.44-0.914,0.983-1.213,1.627
			c-0.063,0.135-0.117,0.267-0.164,0.393v0.002C128.471,49.198,128.311,50.201,128.311,51.354z M127.203,51.364v-0.01h0.002
			c0.002-1.291,0.186-2.423,0.549-3.392l0,0c0.064-0.168,0.129-0.325,0.195-0.469c0.364-0.787,0.863-1.455,1.496-2l0.002-0.002
			l0.006-0.005l-0.002-0.001c0.172-0.148,0.352-0.287,0.539-0.417v0.002c0.19-0.134,0.383-0.253,0.57-0.356
			c1.002-0.553,2.141-0.83,3.411-0.83h0.008v0.002c0.982,0.001,1.88,0.162,2.687,0.488c0.136,0.054,0.268,0.111,0.393,0.172
			c0.658,0.318,1.252,0.754,1.779,1.3c0.636,0.653,1.111,1.434,1.427,2.334c0.31,0.886,0.465,1.886,0.465,2.996
			c0,0.885-0.067,1.682-0.202,2.391c-0.138,0.723-0.348,1.354-0.629,1.889l-0.001,0.008c-0.075,0.144-0.159,0.289-0.253,0.438
			c-0.085,0.136-0.18,0.273-0.281,0.408c-0.51,0.678-1.15,1.229-1.918,1.655l-0.002,0.003c-0.531,0.293-1.088,0.512-1.666,0.657
			c-0.578,0.146-1.182,0.222-1.805,0.222c-0.992,0-1.898-0.164-2.717-0.488c-0.825-0.325-1.553-0.815-2.18-1.469
			c-0.631-0.654-1.103-1.449-1.414-2.386v-0.002C127.357,53.587,127.203,52.54,127.203,51.364z M119.77,51.265
			c0.584-0.135,1.064-0.281,1.442-0.438l0.765-0.314v0.826v0.828c0,0.514-0.033,0.977-0.1,1.389
			c-0.067,0.426-0.174,0.791-0.318,1.094c-0.262,0.545-0.635,1.012-1.111,1.393v0.002c-0.094,0.074-0.188,0.146-0.285,0.209
			c-0.092,0.063-0.196,0.127-0.31,0.189l-0.008,0.006l0,0c-0.312,0.176-0.647,0.316-1.006,0.422l0,0
			c-0.071,0.021-0.142,0.039-0.21,0.058c-0.424,0.104-0.875,0.155-1.352,0.157v0.002h-0.013c-0.712,0-1.313-0.123-1.801-0.364
			v-0.002c-0.101-0.05-0.195-0.104-0.285-0.164c-0.088-0.06-0.175-0.123-0.258-0.195l0,0l-0.007-0.004l-0.006-0.008
			c-0.285-0.252-0.504-0.539-0.647-0.859l0.001-0.002c-0.146-0.323-0.223-0.674-0.223-1.051c0-0.246,0.035-0.483,0.104-0.717l0,0
			c0.066-0.23,0.169-0.447,0.303-0.652l0.002,0.002c0.189-0.301,0.441-0.545,0.746-0.737l0.002,0.002
			c0.073-0.049,0.133-0.082,0.178-0.107h0.006c0.074-0.039,0.138-0.07,0.188-0.092l0.006-0.002h0.002
			c0.31-0.135,0.763-0.258,1.354-0.367c0.099-0.018,0.215-0.037,0.353-0.059l0.004-0.004l0.371-0.058h0.004l0.02-0.002
			C118.475,51.53,119.174,51.403,119.77,51.265z M120.867,52.118c-0.262,0.078-0.545,0.154-0.853,0.226
			c-0.625,0.145-1.354,0.276-2.183,0.396l-0.016,0.002l0,0l-0.369,0.057v-0.002c-0.099,0.017-0.207,0.037-0.322,0.058
			c-0.506,0.094-0.879,0.19-1.109,0.293l-0.005,0.002l0.001,0.002c-0.055,0.022-0.096,0.041-0.12,0.056l0.002,0.002l-0.108,0.061
			l-0.002,0.002c-0.168,0.105-0.306,0.238-0.406,0.398l-0.004,0.008c-0.075,0.115-0.133,0.236-0.17,0.359l0,0
			c-0.035,0.123-0.056,0.258-0.056,0.401c0,0.224,0.041,0.42,0.12,0.597l0.003,0.002c0.08,0.178,0.204,0.34,0.367,0.483l0.003,0.002
			l0.002,0.002c0.044,0.039,0.094,0.076,0.146,0.111c0.053,0.034,0.109,0.067,0.168,0.096h0.002c0.33,0.166,0.768,0.248,1.307,0.248
			h0.012v0.002c0.381,0,0.745-0.043,1.088-0.127c0.058-0.015,0.111-0.028,0.162-0.043h0.002c0.269-0.078,0.527-0.188,0.774-0.328
			l0.009-0.004l0.006-0.002c0.071-0.041,0.146-0.088,0.223-0.142c0.078-0.051,0.15-0.104,0.218-0.157l0.001,0.002
			c0.345-0.275,0.613-0.611,0.804-1.007c0.099-0.204,0.173-0.469,0.226-0.791c0.054-0.336,0.08-0.741,0.08-1.215v-0.049H120.867z
			 M120.091,56.792c0.378-0.236,0.767-0.521,1.161-0.857l0.802-0.678l0.106,1.045c0.041,0.398,0.121,0.758,0.233,1.076l0.024,0.061
			h1.128c-0.052-0.139-0.099-0.275-0.138-0.416c-0.022-0.086-0.045-0.172-0.063-0.256l-0.003-0.004
			c-0.017-0.074-0.033-0.158-0.05-0.254l-0.002-0.014l0,0c-0.051-0.291-0.09-0.785-0.115-1.479
			c-0.025-0.701-0.037-1.562-0.037-2.578v-2.995c0-0.694-0.018-1.226-0.051-1.59v-0.002l-0.021-0.199
			c-0.002-0.026-0.012-0.083-0.023-0.155l0,0l-0.004-0.021c-0.059-0.26-0.137-0.498-0.236-0.717h0.001
			c-0.095-0.206-0.21-0.395-0.349-0.563l0.002-0.002c-0.129-0.154-0.301-0.3-0.514-0.438c-0.229-0.146-0.502-0.279-0.818-0.398
			l0.002-0.001c-0.258-0.097-0.555-0.175-0.893-0.233l0.002-0.002l-0.205-0.033v0.002c-0.436-0.063-0.918-0.098-1.444-0.098v0.002
			h-0.021c-0.554,0-1.062,0.036-1.523,0.107c-0.465,0.072-0.898,0.184-1.297,0.325c-0.551,0.198-1.01,0.456-1.369,0.774h-0.006
			c-0.064,0.059-0.129,0.119-0.19,0.185c-0.058,0.061-0.114,0.126-0.169,0.196l-0.007,0.008L114,46.596l0,0
			c-0.281,0.355-0.512,0.806-0.684,1.339l-0.037,0.122l1.106,0.152c0.106-0.319,0.231-0.605,0.375-0.857
			c0.226-0.396,0.494-0.712,0.81-0.943c0.314-0.229,0.705-0.4,1.168-0.51c0.432-0.102,0.934-0.152,1.502-0.152
			c0.895,0,1.646,0.148,2.25,0.449v0.002c0.123,0.063,0.241,0.131,0.35,0.203c0.117,0.078,0.225,0.16,0.318,0.243v0.001l0.002,0.001
			c0.553,0.479,0.83,1.269,0.83,2.351l-0.002,0.008l-0.004,0.207v0.007l-0.011,0.376l-0.01,0.383l-0.358,0.127
			c-0.453,0.159-1.029,0.307-1.726,0.439c-0.683,0.133-1.483,0.253-2.402,0.362c-0.612,0.074-1.118,0.152-1.515,0.232v-0.002
			l-0.219,0.047v-0.002l-0.164,0.041l0,0l-0.012,0.004h-0.002c-0.273,0.074-0.529,0.168-0.771,0.279
			c-0.241,0.108-0.471,0.238-0.688,0.383l0,0c-0.285,0.193-0.535,0.438-0.746,0.727c-0.045,0.063-0.086,0.123-0.119,0.176
			c-0.035,0.056-0.072,0.119-0.111,0.191h-0.001l-0.002,0.002l-0.003,0.004c-0.125,0.225-0.219,0.463-0.278,0.711
			c-0.063,0.25-0.093,0.518-0.093,0.803c0,0.681,0.169,1.269,0.507,1.765c0.067,0.1,0.142,0.194,0.217,0.282
			c0.077,0.087,0.166,0.179,0.263,0.267v0.002l0.004,0.002l0,0c0.332,0.302,0.74,0.529,1.221,0.683
			c0.5,0.158,1.088,0.237,1.764,0.237c0.41,0,0.807-0.032,1.186-0.1c0.382-0.066,0.748-0.166,1.098-0.3h-0.001
			C119.361,57.206,119.721,57.022,120.091,56.792z M121.232,57.356c-0.187,0.135-0.373,0.262-0.557,0.377
			c-0.432,0.268-0.855,0.482-1.271,0.641h-0.002c-0.421,0.158-0.854,0.277-1.298,0.354c-0.446,0.08-0.905,0.119-1.376,0.119
			c-0.781,0-1.48-0.099-2.098-0.295c-0.639-0.201-1.182-0.509-1.633-0.916v-0.002l-0.004-0.007h-0.002
			c-0.119-0.108-0.235-0.229-0.347-0.354c-0.108-0.127-0.21-0.256-0.299-0.387c-0.467-0.686-0.701-1.482-0.701-2.387
			c0-0.367,0.041-0.724,0.127-1.066c0.084-0.34,0.212-0.668,0.386-0.979l0.002-0.006v-0.003c0.043-0.077,0.094-0.159,0.146-0.245
			c0.057-0.089,0.109-0.168,0.16-0.236c0.283-0.394,0.627-0.726,1.025-0.994l0.002-0.002c0.266-0.18,0.547-0.337,0.842-0.472
			c0.296-0.135,0.607-0.248,0.936-0.34l0,0l0.012-0.003l0.021-0.005l0.197-0.048l0.014-0.004l0.225-0.05l0.008-0.002
			c0.412-0.082,0.947-0.164,1.603-0.242c0.896-0.107,1.67-0.225,2.324-0.35c0.465-0.091,0.866-0.188,1.207-0.285l0.002-0.176h-0.002
			c0-0.748-0.149-1.256-0.448-1.516l0.001-0.001l-0.003-0.002l-0.01-0.004c-0.066-0.06-0.133-0.11-0.196-0.153
			c-0.073-0.05-0.149-0.094-0.229-0.134v0.002c-0.445-0.222-1.033-0.332-1.756-0.332c-0.486,0-0.904,0.041-1.252,0.123
			c-0.316,0.074-0.572,0.183-0.765,0.321c-0.188,0.14-0.354,0.339-0.502,0.598c-0.161,0.285-0.297,0.643-0.405,1.064l-0.123,0.476
			l-0.486-0.065l-2.192-0.304l-0.593-0.082l0.125-0.581l0.002-0.013c0.027-0.132,0.063-0.271,0.1-0.407v-0.002
			c0.035-0.133,0.074-0.264,0.115-0.391c0.215-0.661,0.508-1.229,0.875-1.691l0.004-0.006l0.004-0.005h0.002
			c0.07-0.089,0.146-0.177,0.23-0.267c0.082-0.086,0.171-0.172,0.265-0.254h-0.001c0.461-0.406,1.039-0.733,1.729-0.981
			c0.463-0.167,0.966-0.293,1.502-0.377c0.537-0.084,1.103-0.126,1.691-0.126h0.021v0.002c0.596,0.001,1.131,0.037,1.605,0.105
			l0.006,0.004l0.219,0.034h0.01c0.395,0.07,0.759,0.167,1.088,0.291h0.002c0.391,0.148,0.732,0.315,1.023,0.503
			c0.307,0.195,0.563,0.418,0.77,0.666l0.004,0.002c0.193,0.237,0.359,0.506,0.496,0.807l0.003,0.003
			c0.13,0.284,0.233,0.604,0.312,0.952l0.004,0.021l0.005,0.027l0.002,0.002c0.007,0.037,0.019,0.105,0.028,0.212
			c0.011,0.073,0.021,0.153,0.026,0.235c0.038,0.43,0.06,0.994,0.06,1.689v2.995c0,1.074,0.011,1.922,0.033,2.539
			c0.021,0.629,0.058,1.072,0.103,1.326v0.004l0.003,0.016c0.01,0.057,0.023,0.129,0.042,0.205c0.015,0.068,0.03,0.135,0.049,0.199
			c0.095,0.342,0.231,0.676,0.41,0.996l0.457,0.824h-0.938h-2.349h-0.339l-0.154-0.31l-0.01-0.021l-0.003-0.004
			c-0.04-0.084-0.074-0.157-0.104-0.227v-0.002c-0.033-0.078-0.063-0.158-0.092-0.236C121.31,57.624,121.27,57.491,121.232,57.356z
			 M97.881,45.293v12.146h1.14v-6.685H99.02c0-0.899,0.094-1.666,0.282-2.295c0.204-0.676,0.519-1.203,0.946-1.578l0.002-0.002
			c0.402-0.348,0.84-0.609,1.313-0.784c0.476-0.175,0.984-0.265,1.528-0.265c0.343,0,0.67,0.041,0.98,0.121
			c0.313,0.082,0.604,0.207,0.873,0.369l0,0c0.391,0.236,0.7,0.537,0.928,0.897l0.002,0.003c0.041,0.064,0.082,0.139,0.121,0.216
			v0.003c0.041,0.082,0.076,0.159,0.104,0.229l0,0l0.001,0.004l0.005,0.009c0.102,0.264,0.176,0.592,0.227,0.983l0.002,0.002
			c0.046,0.364,0.068,0.787,0.068,1.265v7.509h1.141v-7.595c0-0.726-0.02-1.283-0.059-1.675c-0.006-0.073-0.014-0.146-0.022-0.213
			c-0.009-0.061-0.019-0.119-0.027-0.172l-0.002-0.012l0,0c-0.062-0.29-0.144-0.556-0.244-0.794
			c-0.098-0.233-0.221-0.451-0.364-0.653l-0.004-0.006c-0.129-0.184-0.299-0.354-0.507-0.51l0.001-0.002
			c-0.212-0.158-0.468-0.303-0.766-0.432h0.001c-0.296-0.125-0.608-0.223-0.938-0.287l0,0c-0.33-0.063-0.679-0.098-1.045-0.098
			c-1.185,0-2.162,0.332-2.934,0.994h-0.001c-0.149,0.129-0.293,0.271-0.429,0.428c-0.139,0.156-0.27,0.328-0.393,0.51l0.002,0.002
			l-0.004,0.005l-1.016,1.524v-1.832v-1.33H97.881z M96.775,57.993V44.742v-0.554h0.553h2.021h0.556v0.554v0.416l0.008-0.009
			l0.002-0.002c0.979-0.842,2.197-1.263,3.652-1.263c0.434,0,0.852,0.039,1.254,0.117h0.002c0.4,0.078,0.789,0.199,1.16,0.356h0.002
			c0.375,0.161,0.705,0.351,0.993,0.567h0.003c0.29,0.219,0.536,0.47,0.736,0.751h0.002c0.189,0.262,0.352,0.554,0.486,0.872
			c0.133,0.313,0.234,0.646,0.31,0.994l0.002,0.015l0.005,0.026c0.012,0.064,0.024,0.142,0.035,0.224
			c0.01,0.075,0.02,0.161,0.027,0.256c0.045,0.454,0.066,1.047,0.066,1.779v8.148v0.555h-0.555h-2.249l-0.556-0.002v-0.553v-8.063
			c0-0.435-0.02-0.813-0.061-1.132h0.002c-0.035-0.293-0.091-0.534-0.164-0.726l0,0v-0.002c-0.021-0.055-0.041-0.103-0.06-0.137
			l-0.001,0.001c-0.021-0.04-0.047-0.085-0.074-0.131h0.001c-0.132-0.211-0.321-0.391-0.563-0.536l-0.002-0.002
			c-0.178-0.106-0.369-0.19-0.576-0.244c-0.211-0.056-0.444-0.082-0.702-0.082c-0.414,0-0.798,0.063-1.146,0.194
			c-0.351,0.128-0.675,0.322-0.97,0.578c-0.267,0.232-0.471,0.588-0.612,1.063c-0.158,0.521-0.236,1.184-0.236,1.979h-0.002v7.238
			v0.556h-0.553h-2.244h-0.553V57.993L96.775,57.993z M90.787,50.646h-7.398h-0.591l0.038-0.589
			c0.041-0.637,0.174-1.219,0.393-1.738c0.225-0.529,0.537-0.994,0.939-1.391c0.339-0.332,0.711-0.596,1.115-0.789l0.002,0.002
			c0.078-0.038,0.16-0.074,0.242-0.105c0.496-0.199,1.039-0.299,1.623-0.3v-0.002h0.008v0.002c0.938,0,1.758,0.261,2.455,0.778
			c0.135,0.102,0.266,0.212,0.389,0.33c0.123,0.115,0.242,0.244,0.357,0.384l0.004,0.004h0.002c0.387,0.463,0.666,1.082,0.832,1.851
			l0,0c0.03,0.14,0.059,0.291,0.082,0.451c0.02,0.137,0.039,0.297,0.055,0.479l0.003,0.002l0.003,0.03l0.053,0.602L90.787,50.646
			L90.787,50.646z M84.015,49.537h6.146c-0.014-0.074-0.028-0.146-0.045-0.222v-0.002c-0.127-0.589-0.328-1.048-0.6-1.372v-0.002
			l-0.005-0.006c-0.084-0.102-0.175-0.197-0.271-0.289c-0.093-0.089-0.188-0.17-0.285-0.242c-0.504-0.375-1.104-0.563-1.797-0.563
			v0.002H87.15V46.84c-0.443,0-0.85,0.074-1.217,0.221c-0.059,0.021-0.115,0.049-0.174,0.076v0.002
			c-0.297,0.142-0.57,0.335-0.816,0.578c-0.301,0.295-0.533,0.639-0.697,1.029C84.144,48.989,84.068,49.252,84.015,49.537z
			 M92.354,54.479l-1.232-0.152c-0.148,0.349-0.316,0.66-0.5,0.937c-0.268,0.397-0.571,0.725-0.914,0.977
			c-0.283,0.212-0.594,0.38-0.926,0.503v0.002c-0.062,0.021-0.129,0.045-0.199,0.065v0.002c-0.399,0.123-0.834,0.187-1.303,0.188
			v0.002h-0.01v-0.002c-0.631,0-1.21-0.111-1.736-0.332c-0.526-0.224-1.002-0.558-1.43-1h-0.001
			c-0.601-0.623-1.009-1.435-1.226-2.429c-0.037-0.176-0.071-0.375-0.102-0.594c-0.027-0.207-0.048-0.416-0.061-0.625V52.02
			l-0.003-0.049l-0.032-0.584h0.585h9.342l0.001-0.048h-0.002c0-1.479-0.269-2.71-0.802-3.689c-0.099-0.179-0.211-0.356-0.338-0.535
			c-0.124-0.173-0.257-0.334-0.394-0.479l-0.002-0.004l-0.006-0.006c-0.422-0.455-0.896-0.813-1.418-1.078
			c-0.099-0.049-0.201-0.096-0.311-0.142c-0.656-0.274-1.391-0.413-2.197-0.413v0.002h-0.008c-0.846,0-1.605,0.142-2.279,0.42
			c-0.668,0.276-1.264,0.694-1.783,1.252c-0.52,0.559-0.91,1.23-1.172,2.018c-0.267,0.804-0.4,1.736-0.4,2.798
			c0,1.02,0.131,1.918,0.396,2.695c0.258,0.76,0.643,1.41,1.155,1.945c0.425,0.448,0.915,0.805,1.467,1.063
			c0.106,0.051,0.22,0.099,0.333,0.144h-0.001c0.704,0.272,1.505,0.411,2.399,0.411v-0.002h0.01v0.002
			c0.713,0,1.361-0.086,1.945-0.26c0.283-0.082,0.551-0.188,0.805-0.313c0.246-0.123,0.482-0.268,0.706-0.434h0.002l0.006-0.004l0,0
			c0.438-0.332,0.812-0.736,1.114-1.209C92.037,55.206,92.211,54.856,92.354,54.479z M90.83,53.175l2.32,0.285l0.633,0.078
			l-0.164,0.614c-0.199,0.734-0.483,1.392-0.854,1.966c-0.372,0.577-0.833,1.077-1.381,1.491l-0.003,0.002l-0.007,0.007v0.002
			c-0.271,0.202-0.565,0.383-0.879,0.539c-0.311,0.151-0.639,0.278-0.982,0.383c-0.682,0.201-1.436,0.301-2.258,0.301v0.004h-0.01
			v-0.004c-1.035,0-1.971-0.162-2.799-0.484h-0.004c-0.135-0.053-0.269-0.111-0.4-0.174c-0.678-0.318-1.276-0.754-1.797-1.301
			c-0.625-0.656-1.094-1.441-1.402-2.354c-0.305-0.896-0.456-1.914-0.456-3.051c0-1.171,0.153-2.219,0.461-3.145
			c0.313-0.943,0.784-1.752,1.41-2.426c0.629-0.673,1.354-1.181,2.174-1.52c0.813-0.337,1.714-0.506,2.699-0.506h0.008v0.002
			c0.96,0.001,1.835,0.167,2.622,0.494c0.128,0.054,0.256,0.113,0.385,0.178c0.643,0.324,1.221,0.763,1.73,1.313l0.003,0.004
			l0.004,0.004c0.176,0.188,0.339,0.388,0.483,0.588c0.142,0.199,0.277,0.416,0.406,0.652c0.627,1.149,0.939,2.559,0.939,4.22
			l-0.002,0.008l-0.004,0.252v0.008l-0.01,0.35l-0.015,0.539h-0.537h-9.274v0.008c0.021,0.158,0.053,0.328,0.09,0.502
			c0.172,0.793,0.484,1.427,0.938,1.896v0.002c0.314,0.328,0.67,0.576,1.063,0.742c0.396,0.166,0.831,0.248,1.308,0.248V55.89h0.01
			v0.002c0.351,0,0.676-0.047,0.975-0.139h0.002c0.042-0.015,0.088-0.029,0.137-0.047h0.002c0.232-0.088,0.453-0.207,0.655-0.357
			c0.239-0.178,0.459-0.412,0.651-0.703c0.207-0.307,0.388-0.678,0.543-1.107l0.148-0.418L90.83,53.175z M64.504,52.513
			l-1.227,0.107c0.062,0.578,0.201,1.125,0.422,1.635c0.058,0.136,0.119,0.267,0.187,0.392c0.067,0.129,0.142,0.254,0.217,0.373
			l0.056,0.086h-0.002c0.285,0.438,0.629,0.817,1.022,1.146h0.002c0.399,0.33,0.854,0.604,1.362,0.821l0.005,0.003
			c0.516,0.225,1.1,0.393,1.75,0.506c0.659,0.112,1.391,0.17,2.19,0.17c0.883,0,1.698-0.113,2.441-0.34v-0.002
			c0.141-0.043,0.284-0.093,0.43-0.146c0.143-0.053,0.279-0.109,0.408-0.168l-0.001-0.002l0.013-0.006
			c0.477-0.219,0.896-0.48,1.26-0.785c0.358-0.299,0.664-0.641,0.912-1.023c0.246-0.383,0.435-0.779,0.559-1.191
			c0.123-0.403,0.186-0.823,0.186-1.258c0-0.625-0.113-1.197-0.343-1.711l0.003-0.002c-0.039-0.086-0.088-0.184-0.146-0.293
			c-0.059-0.104-0.115-0.198-0.172-0.282h-0.002l-0.006-0.008l0,0c-0.318-0.473-0.771-0.892-1.356-1.256
			c-0.118-0.072-0.241-0.146-0.367-0.213c-0.13-0.068-0.265-0.137-0.399-0.199l-0.002-0.001l0,0
			c-0.342-0.153-0.838-0.325-1.486-0.512V48.35c-0.652-0.188-1.473-0.395-2.457-0.618c-1.014-0.229-1.832-0.453-2.453-0.675
			c-0.674-0.24-1.154-0.492-1.444-0.754l0,0l-0.005-0.004c-0.242-0.219-0.439-0.465-0.586-0.742
			c-0.021-0.038-0.048-0.096-0.078-0.164h-0.004c-0.148-0.336-0.225-0.711-0.225-1.119h-0.004v-0.01
			c0-0.669,0.217-1.271,0.643-1.803c0.086-0.106,0.174-0.205,0.264-0.293c0.086-0.086,0.188-0.176,0.303-0.27l0,0l0.008-0.007
			c0.398-0.317,0.904-0.556,1.515-0.707c0.579-0.146,1.257-0.22,2.033-0.22c0.748,0,1.415,0.082,1.997,0.242
			c0.605,0.168,1.117,0.426,1.539,0.771l0.001-0.001c0.601,0.491,1.022,1.148,1.267,1.968v0.002c0.047,0.161,0.09,0.323,0.12,0.483
			l0.002,0.006l1.253-0.096c-0.064-0.48-0.191-0.936-0.378-1.36c-0.052-0.116-0.104-0.229-0.163-0.335h-0.001
			c-0.059-0.109-0.12-0.219-0.188-0.323l-0.002-0.001v-0.001l-0.032-0.05l0.001-0.001c-0.354-0.538-0.82-0.983-1.396-1.337
			c-0.121-0.073-0.24-0.141-0.354-0.199c-0.104-0.055-0.234-0.113-0.384-0.176l-0.002-0.002l-0.006-0.003v-0.001
			c-0.48-0.202-1-0.354-1.557-0.457c-0.559-0.102-1.165-0.152-1.818-0.152v-0.002c-0.578,0-1.133,0.049-1.66,0.146
			c-0.521,0.098-1.018,0.242-1.484,0.434v0.001c-0.454,0.188-0.854,0.42-1.195,0.692c-0.337,0.268-0.621,0.578-0.85,0.929v0.002
			c-0.193,0.296-0.348,0.603-0.459,0.918l-0.063,0.183c-0.113,0.377-0.172,0.771-0.172,1.174h0.002v0.01
			c0,0.373,0.045,0.724,0.137,1.052c0.093,0.328,0.23,0.64,0.414,0.931h0.002c0.269,0.424,0.642,0.803,1.117,1.133
			c0.104,0.071,0.203,0.138,0.295,0.191c0.106,0.064,0.217,0.126,0.323,0.184l0.011,0.002c0.313,0.166,0.746,0.338,1.297,0.518
			c0.584,0.188,1.285,0.381,2.103,0.577c1.214,0.292,2.122,0.53,2.728,0.715v-0.003c0.095,0.029,0.205,0.064,0.328,0.105
			c0.096,0.031,0.187,0.063,0.269,0.097h0.001h0.004c0.418,0.159,0.783,0.34,1.09,0.541l-0.001,0.001
			c0.326,0.213,0.593,0.452,0.796,0.716c0.206,0.264,0.36,0.551,0.465,0.861c0.104,0.31,0.154,0.639,0.154,0.979
			c0,0.338-0.054,0.67-0.16,0.99c-0.104,0.313-0.261,0.614-0.465,0.899c-0.209,0.289-0.471,0.545-0.781,0.769
			c-0.302,0.215-0.65,0.397-1.047,0.553H73.02c-0.39,0.15-0.807,0.265-1.249,0.339c-0.442,0.073-0.907,0.11-1.396,0.11
			c-0.789,0-1.533-0.101-2.227-0.301h0.002c-0.164-0.048-0.296-0.091-0.4-0.127v-0.003c-0.139-0.051-0.268-0.102-0.385-0.151h-0.002
			l-0.004-0.002l0,0L67.351,56.1l-0.005-0.002c-0.456-0.197-0.855-0.431-1.2-0.695c-0.354-0.272-0.647-0.582-0.878-0.924
			c-0.225-0.334-0.408-0.715-0.551-1.138C64.63,53.081,64.559,52.804,64.504,52.513z M62.642,51.563l2.284-0.201l0.535-0.047
			l0.062,0.537c0.05,0.42,0.13,0.801,0.243,1.137c0.107,0.324,0.249,0.615,0.42,0.869c0.166,0.246,0.379,0.469,0.637,0.668
			c0.27,0.209,0.592,0.395,0.965,0.557l0.01,0.004l0.004,0.002c0.111,0.05,0.22,0.093,0.32,0.127v-0.002
			c0.135,0.05,0.248,0.086,0.332,0.111h0.002c0.582,0.168,1.224,0.252,1.92,0.252c0.437,0,0.841-0.031,1.213-0.094
			c0.369-0.061,0.715-0.154,1.031-0.275h-0.002c0.312-0.123,0.582-0.264,0.808-0.426c0.215-0.152,0.392-0.324,0.526-0.512
			c0.141-0.195,0.244-0.395,0.313-0.602c0.066-0.199,0.102-0.414,0.102-0.644c0-0.231-0.033-0.442-0.096-0.633
			s-0.158-0.365-0.288-0.531l-0.003-0.002c-0.127-0.166-0.304-0.319-0.523-0.465h-0.004c-0.24-0.158-0.533-0.304-0.877-0.435l0,0
			l-0.004-0.002l-0.006-0.002c-0.056-0.021-0.131-0.049-0.221-0.078c-0.063-0.021-0.16-0.053-0.297-0.094v-0.002
			c-0.582-0.178-1.469-0.409-2.662-0.696c-0.861-0.207-1.592-0.407-2.186-0.6c-0.625-0.201-1.119-0.398-1.479-0.59l0.001-0.002
			v0.001c-0.135-0.069-0.265-0.144-0.382-0.214c-0.135-0.081-0.256-0.158-0.36-0.23c-0.599-0.416-1.071-0.9-1.42-1.449V47
			c-0.241-0.385-0.424-0.791-0.545-1.223c-0.12-0.431-0.183-0.881-0.183-1.351v-0.011h0.004c0.001-0.512,0.074-1.011,0.221-1.492
			c0.033-0.109,0.059-0.188,0.075-0.235c0.142-0.396,0.333-0.78,0.575-1.151l0.002,0.002c0.295-0.453,0.656-0.852,1.086-1.192
			c0.423-0.337,0.91-0.619,1.46-0.849h0.003c0.54-0.221,1.109-0.389,1.705-0.498c0.589-0.109,1.209-0.164,1.861-0.164v-0.004
			c0.705,0,1.377,0.06,2.013,0.176c0.637,0.115,1.233,0.291,1.792,0.527h0.003h0.003h0.001c0.14,0.059,0.292,0.131,0.456,0.215
			c0.154,0.078,0.299,0.16,0.429,0.238c0.718,0.438,1.3,0.999,1.745,1.678l0.003,0.002l0.034,0.053l0.002,0.002
			c0.084,0.132,0.162,0.266,0.234,0.398v0.002c0.074,0.141,0.143,0.279,0.201,0.416c0.31,0.703,0.482,1.469,0.516,2.291l0.021,0.533
			l-0.533,0.041l-2.321,0.176l-0.532,0.039l-0.059-0.531l-0.002-0.021h-0.002v-0.003c-0.017-0.141-0.039-0.281-0.065-0.421
			c-0.026-0.138-0.058-0.267-0.093-0.382l-0.002,0.001c-0.178-0.601-0.48-1.078-0.906-1.427v-0.002
			c-0.299-0.246-0.678-0.434-1.132-0.559c-0.479-0.133-1.048-0.199-1.703-0.199c-0.688,0-1.276,0.063-1.765,0.185
			c-0.455,0.114-0.82,0.28-1.094,0.497h-0.002l-0.002,0.004c-0.07,0.056-0.144,0.121-0.217,0.195
			c-0.07,0.069-0.132,0.136-0.182,0.196c-0.26,0.327-0.394,0.698-0.394,1.11v0.008h-0.002c0,0.247,0.046,0.473,0.134,0.674h-0.002
			l0.049,0.096c0.082,0.155,0.199,0.302,0.348,0.434l0.004,0.004c0.179,0.162,0.538,0.341,1.077,0.533
			c0.594,0.212,1.368,0.426,2.321,0.64c0.982,0.224,1.822,0.437,2.52,0.638v-0.004c0.701,0.202,1.248,0.393,1.639,0.568l0.004,0.003
			l0.006,0.002c0.162,0.075,0.315,0.152,0.461,0.229c0.148,0.08,0.293,0.164,0.429,0.248c0.72,0.447,1.284,0.976,1.692,1.578
			l0.002,0.002l0.006,0.008l-0.002,0.002c0.084,0.126,0.158,0.246,0.223,0.363c0.063,0.11,0.124,0.238,0.188,0.381h0.002
			c0.291,0.657,0.437,1.378,0.437,2.157c0,0.541-0.077,1.066-0.231,1.578c-0.152,0.506-0.386,0.998-0.692,1.473
			c-0.31,0.479-0.687,0.902-1.128,1.271c-0.438,0.367-0.94,0.68-1.508,0.941l-0.012,0.006h-0.002
			c-0.16,0.072-0.322,0.141-0.48,0.199c-0.157,0.061-0.322,0.117-0.493,0.168h-0.002c-0.858,0.262-1.781,0.395-2.765,0.395
			c-0.855,0-1.649-0.063-2.377-0.189c-0.734-0.127-1.402-0.319-2.002-0.58l0,0l-0.004-0.002l0,0
			c-0.609-0.262-1.154-0.59-1.632-0.983l0.002-0.002c-0.481-0.396-0.897-0.863-1.248-1.396l-0.004-0.004l-0.056-0.088l-0.006-0.004
			c-0.094-0.15-0.182-0.301-0.262-0.449c-0.082-0.156-0.156-0.313-0.225-0.469c-0.338-0.787-0.521-1.645-0.543-2.564l-0.014-0.52
			L62.642,51.563z M331.204,57.993v-2.561h2.56v2.561H331.204z M325.018,53.138l2.207,0.289c-0.237,1.521-0.856,2.713-1.854,3.574
			c-0.994,0.858-2.215,1.291-3.664,1.291c-1.809,0-3.27-0.595-4.368-1.777c-1.104-1.184-1.658-2.883-1.658-5.098
			c0-1.434,0.237-2.687,0.713-3.759c0.476-1.074,1.197-1.878,2.168-2.414c0.968-0.537,2.022-0.807,3.16-0.807
			c1.438,0,2.619,0.368,3.53,1.096c0.914,0.729,1.505,1.76,1.765,3.102l-2.187,0.336c-0.209-0.891-0.573-1.561-1.104-2.012
			c-0.527-0.447-1.166-0.672-1.916-0.672c-1.133,0-2.053,0.405-2.76,1.219c-0.707,0.81-1.063,2.091-1.063,3.847
			c0,1.781,0.342,3.076,1.026,3.885c0.683,0.805,1.572,1.209,2.67,1.209c0.884,0,1.615-0.271,2.207-0.813
			C324.483,55.091,324.86,54.263,325.018,53.138z M300.737,57.993V44.742h2.02v1.883c0.975-1.457,2.381-2.187,4.217-2.187
			c0.801,0,1.533,0.146,2.201,0.431c0.674,0.289,1.17,0.668,1.504,1.133c0.334,0.467,0.566,1.02,0.703,1.658
			c0.08,0.416,0.123,1.146,0.123,2.185v8.148h-2.248v-8.063c0-0.912-0.086-1.599-0.262-2.054c-0.172-0.451-0.486-0.813-0.928-1.082
			c-0.447-0.271-0.968-0.409-1.568-0.409c-0.957,0-1.781,0.306-2.479,0.911c-0.694,0.607-1.039,1.761-1.039,3.459v7.237H300.737z
			 M292.913,57.993V39.698h2.418v18.295H292.913z M272.919,57.993v-2.561h2.562v2.561c0,0.941-0.163,1.701-0.5,2.279
			c-0.331,0.576-0.862,1.021-1.584,1.342l-0.627-0.963c0.476-0.209,0.824-0.516,1.05-0.916c0.227-0.404,0.35-0.984,0.375-1.742
			H272.919z M257.239,54.036l2.219-0.35c0.123,0.891,0.473,1.572,1.043,2.049c0.566,0.473,1.363,0.711,2.391,0.711
			c1.031,0,1.799-0.211,2.297-0.631s0.748-0.916,0.748-1.477c0-0.512-0.221-0.908-0.664-1.201c-0.305-0.201-1.074-0.451-2.297-0.758
			c-1.645-0.416-2.789-0.777-3.424-1.082s-1.121-0.727-1.449-1.263c-0.326-0.537-0.492-1.129-0.492-1.775
			c0-0.592,0.139-1.137,0.408-1.641c0.27-0.506,0.641-0.923,1.104-1.258c0.351-0.253,0.826-0.479,1.429-0.654
			c0.604-0.18,1.252-0.27,1.94-0.27c1.039,0,1.951,0.152,2.738,0.452c0.789,0.298,1.369,0.702,1.742,1.214
			c0.375,0.516,0.631,1.195,0.771,2.053l-2.193,0.303c-0.102-0.682-0.393-1.213-0.869-1.598c-0.477-0.383-1.154-0.574-2.027-0.574
			c-1.031,0-1.768,0.172-2.207,0.512c-0.44,0.341-0.664,0.74-0.664,1.197c0,0.293,0.094,0.553,0.277,0.787
			c0.182,0.242,0.467,0.438,0.859,0.6c0.227,0.082,0.887,0.275,1.984,0.572c1.588,0.426,2.694,0.772,3.323,1.044
			c0.629,0.271,1.123,0.664,1.481,1.18c0.357,0.516,0.535,1.154,0.535,1.922c0,0.748-0.219,1.453-0.655,2.115
			s-1.068,1.172-1.892,1.535c-0.822,0.36-1.754,0.541-2.795,0.541c-1.723,0-3.037-0.359-3.938-1.074
			C258.061,56.503,257.485,55.442,257.239,54.036z M243.946,57.993V39.698h2.25v10.433l5.315-5.389h2.903l-5.063,4.916l5.58,8.335
			h-2.772l-4.379-6.777l-1.584,1.525v5.252H243.946z M233.98,57.993V44.742h2.021v2.006c0.516-0.938,0.994-1.559,1.432-1.856
			c0.434-0.298,0.916-0.452,1.439-0.452c0.758,0,1.524,0.243,2.309,0.725l-0.775,2.088c-0.545-0.328-1.094-0.489-1.645-0.489
			c-0.494,0-0.934,0.147-1.324,0.442c-0.393,0.297-0.67,0.707-0.834,1.23c-0.254,0.796-0.375,1.67-0.375,2.619v6.938H233.98z
			 M219.842,51.366c0,1.697,0.371,2.969,1.11,3.812c0.742,0.848,1.674,1.27,2.793,1.27c1.117,0,2.047-0.424,2.787-1.272
			c0.738-0.846,1.107-2.144,1.107-3.881c0-1.641-0.371-2.884-1.115-3.728c-0.746-0.844-1.67-1.265-2.779-1.265
			c-1.119,0-2.053,0.421-2.793,1.26C220.21,48.399,219.842,49.67,219.842,51.366z M217.534,51.366c0-2.454,0.68-4.273,2.049-5.452
			c1.137-0.98,2.525-1.476,4.164-1.476c1.824,0,3.313,0.599,4.469,1.794c1.156,1.194,1.734,2.841,1.734,4.944
			c0,1.709-0.256,3.051-0.767,4.025c-0.515,0.979-1.258,1.739-2.231,2.278c-0.98,0.543-2.045,0.812-3.205,0.812
			c-1.853,0-3.351-0.595-4.498-1.785C218.105,55.317,217.534,53.606,217.534,51.366z M200.939,57.993l-4.055-13.251h2.319
			l2.109,7.649l0.783,2.846c0.035-0.145,0.264-1.057,0.686-2.734l2.109-7.761h2.309l1.984,7.686l0.664,2.532l0.76-2.561l2.271-7.657
			h2.187l-4.146,13.251h-2.33l-2.109-7.937l-0.516-2.262l-2.679,10.198H200.939L200.939,57.993z M194.875,55.983l0.324,1.984
			c-0.629,0.133-1.195,0.201-1.695,0.201c-0.816,0-1.447-0.131-1.898-0.39c-0.447-0.256-0.763-0.598-0.945-1.018
			c-0.184-0.418-0.276-1.306-0.276-2.65v-7.625h-1.647V44.74h1.647v-3.283l2.235-1.346v4.631h2.258v1.745h-2.258v7.748
			c0,0.645,0.039,1.053,0.115,1.236c0.08,0.184,0.209,0.328,0.387,0.439c0.181,0.104,0.437,0.159,0.769,0.159
			C194.139,56.071,194.467,56.042,194.875,55.983z M176.035,50.092h7.398c-0.098-1.112-0.386-1.95-0.848-2.506
			c-0.719-0.862-1.645-1.299-2.781-1.299c-1.031,0-1.9,0.346-2.604,1.035C176.498,48.013,176.111,48.937,176.035,50.092z
			 M183.408,53.726l2.32,0.285c-0.365,1.359-1.041,2.414-2.031,3.16c-0.99,0.748-2.258,1.121-3.795,1.121
			c-1.938,0-3.476-0.601-4.609-1.789c-1.135-1.195-1.702-2.867-1.702-5.023c0-2.231,0.573-3.963,1.721-5.19
			c1.147-1.232,2.638-1.851,4.468-1.851c1.772,0,3.221,0.606,4.342,1.812c1.123,1.207,1.687,2.903,1.687,5.089
			c0,0.138-0.004,0.339-0.013,0.603h-9.883c0.082,1.457,0.496,2.572,1.235,3.345c0.742,0.772,1.66,1.161,2.769,1.161
			c0.822,0,1.525-0.219,2.109-0.649C182.605,55.364,183.066,54.675,183.408,53.726z M130.068,51.366c0,1.699,0.369,2.969,1.11,3.812
			c0.741,0.848,1.675,1.27,2.794,1.27c1.117,0,2.045-0.426,2.786-1.272c0.737-0.848,1.108-2.144,1.108-3.881
			c0-1.641-0.371-2.884-1.117-3.728c-0.745-0.844-1.67-1.265-2.777-1.265c-1.119,0-2.053,0.421-2.794,1.26
			S130.068,49.67,130.068,51.366z M127.758,51.366c0-2.454,0.682-4.272,2.049-5.452c1.139-0.98,2.525-1.476,4.166-1.476
			c1.824,0,3.314,0.597,4.469,1.794c1.158,1.191,1.734,2.841,1.734,4.944c0,1.709-0.256,3.051-0.768,4.025
			c-0.512,0.979-1.256,1.737-2.231,2.278c-0.979,0.541-2.044,0.812-3.204,0.812c-1.854,0-3.352-0.592-4.498-1.785
			C128.328,55.317,127.758,53.606,127.758,51.366z M121.422,51.339c-0.817,0.338-2.039,0.619-3.666,0.854
			c-0.926,0.131-1.581,0.281-1.961,0.447c-0.383,0.166-0.682,0.408-0.885,0.732c-0.209,0.317-0.316,0.672-0.316,1.063
			c0,0.601,0.23,1.101,0.682,1.498c0.452,0.396,1.117,0.598,1.99,0.598c0.864,0,1.635-0.188,2.309-0.565
			c0.674-0.379,1.172-0.898,1.486-1.555c0.243-0.509,0.361-1.259,0.361-2.244V51.339z M121.609,56.356
			c-0.834,0.709-1.635,1.207-2.402,1.5c-0.771,0.289-1.596,0.436-2.479,0.436c-1.457,0-2.572-0.354-3.355-1.065
			c-0.78-0.711-1.172-1.623-1.172-2.726c0-0.651,0.146-1.244,0.443-1.78c0.293-0.537,0.68-0.968,1.158-1.291
			c0.48-0.324,1.018-0.57,1.617-0.737c0.439-0.114,1.104-0.229,1.994-0.336c1.813-0.218,3.152-0.474,4.008-0.774
			c0.01-0.308,0.014-0.504,0.014-0.584c0-0.916-0.213-1.563-0.639-1.935c-0.571-0.511-1.428-0.762-2.557-0.762
			c-1.057,0-1.836,0.183-2.343,0.554c-0.504,0.37-0.874,1.025-1.116,1.968l-2.193-0.303c0.199-0.938,0.529-1.7,0.984-2.274
			c0.455-0.58,1.119-1.026,1.983-1.338c0.865-0.311,1.865-0.469,3.008-0.469c1.134,0,2.05,0.137,2.757,0.4
			c0.707,0.269,1.227,0.601,1.563,1.006c0.334,0.404,0.563,0.91,0.699,1.529c0.072,0.383,0.111,1.072,0.111,2.068v2.995
			c0,2.092,0.045,3.412,0.145,3.961c0.094,0.555,0.285,1.088,0.566,1.594h-2.349C121.826,57.528,121.674,56.983,121.609,56.356z
			 M97.328,57.993V44.742h2.02v1.883c0.975-1.457,2.381-2.187,4.217-2.187c0.801,0,1.533,0.146,2.201,0.431
			c0.674,0.291,1.173,0.664,1.504,1.133c0.337,0.465,0.567,1.02,0.703,1.658c0.082,0.416,0.124,1.146,0.124,2.185v8.148h-2.249
			v-8.063c0-0.912-0.086-1.599-0.26-2.054c-0.176-0.451-0.486-0.813-0.93-1.082c-0.446-0.272-0.967-0.409-1.566-0.409
			c-0.959,0-1.781,0.308-2.479,0.911c-0.695,0.609-1.041,1.761-1.041,3.459v7.237H97.328z M83.389,50.092h7.398
			c-0.099-1.112-0.383-1.951-0.849-2.506c-0.715-0.864-1.644-1.299-2.78-1.299c-1.031,0-1.899,0.346-2.604,1.035
			C83.853,48.013,83.466,48.937,83.389,50.092z M90.762,53.726l2.322,0.285c-0.366,1.359-1.045,2.41-2.031,3.16
			c-0.993,0.746-2.26,1.121-3.796,1.121c-1.938,0-3.478-0.599-4.609-1.789c-1.138-1.193-1.704-2.867-1.704-5.023
			c0-2.231,0.575-3.961,1.723-5.19c1.148-1.231,2.636-1.851,4.468-1.851c1.772,0,3.221,0.604,4.341,1.812
			c1.124,1.205,1.688,2.903,1.688,5.089c0,0.138-0.004,0.339-0.012,0.603h-9.884c0.08,1.457,0.494,2.572,1.235,3.345
			c0.74,0.774,1.66,1.161,2.769,1.161c0.822,0,1.524-0.217,2.108-0.649C89.962,55.364,90.422,54.675,90.762,53.726z M62.689,52.114
			l2.283-0.199c0.105,0.916,0.357,1.666,0.754,2.254c0.396,0.586,1.01,1.062,1.84,1.422c0.831,0.361,1.768,0.541,2.809,0.541
			c0.924,0,1.736-0.137,2.443-0.407c0.707-0.277,1.235-0.652,1.582-1.129c0.344-0.482,0.518-1.002,0.518-1.568
			c0-0.573-0.164-1.071-0.502-1.504c-0.332-0.43-0.881-0.788-1.645-1.078c-0.494-0.191-1.576-0.488-3.258-0.894
			c-1.68-0.405-2.857-0.784-3.531-1.144c-0.873-0.455-1.525-1.025-1.955-1.703c-0.427-0.678-0.64-1.436-0.64-2.278
			c0-0.921,0.26-1.784,0.784-2.587c0.523-0.805,1.291-1.412,2.296-1.83c1.01-0.413,2.125-0.622,3.356-0.622
			c1.358,0,2.551,0.218,3.59,0.655c1.035,0.436,1.832,1.078,2.391,1.926c0.555,0.849,0.855,1.811,0.898,2.884l-2.321,0.175
			c-0.127-1.154-0.55-2.031-1.271-2.619c-0.72-0.593-1.779-0.887-3.186-0.887c-1.467,0-2.53,0.27-3.204,0.807
			c-0.667,0.534-1.004,1.182-1.004,1.936c0,0.66,0.239,1.201,0.712,1.623c0.468,0.426,1.684,0.859,3.65,1.304
			c1.968,0.447,3.316,0.835,4.051,1.167c1.064,0.494,1.854,1.116,2.359,1.866c0.506,0.754,0.758,1.623,0.758,2.604
			c0,0.976-0.276,1.892-0.834,2.75c-0.559,0.861-1.359,1.529-2.402,2.012c-1.044,0.478-2.221,0.716-3.523,0.716
			c-1.656,0-3.045-0.238-4.16-0.726c-1.121-0.479-1.998-1.205-2.637-2.176C63.056,54.437,62.719,53.337,62.689,52.114z"/>
		<path fill="#0071BE" d="M155.313,39.082v18.514h1.605V42.804v-1.398l0.777,1.163l10.045,15.026h1.978V39.082h-1.606v14.776v1.398
			l-0.777-1.162l-10.045-15.013H155.313z M154.461,58.021V38.656v-0.425h0.426h2.628h0.226l0.127,0.188l9.395,14.042V38.656v-0.425
			h0.425h2.457h0.427v0.425v19.364v0.426h-0.427h-2.628h-0.227l-0.127-0.189l-9.393-14.054v13.817v0.426h-0.426h-2.457h-0.426
			V58.021z M154.887,58.021V38.656h2.628l10.171,15.202V38.656h2.457v19.364h-2.628l-10.171-15.217v15.217H154.887z"/>
	</g>
</g>
</svg>
