<?xml version="1.0" encoding="utf-8"?>
<!-- Generator: Adobe Illustrator 16.0.3, SVG Export Plug-In . SVG Version: 6.00 Build 0)  -->
<!DOCTYPE svg PUBLIC "-//W3C//DTD SVG 1.1//EN" "http://www.w3.org/Graphics/SVG/1.1/DTD/svg11.dtd">
<svg version="1.1" id="圖層_1" xmlns="http://www.w3.org/2000/svg" xmlns:xlink="http://www.w3.org/1999/xlink" x="0px" y="0px"
	 width="50px" height="70px" viewBox="0 0 50 70" style="enable-background:new 0 0 50 70;" xml:space="preserve">
<g style="opacity:0.18;">
	<linearGradient id="SVGID_1_" gradientUnits="userSpaceOnUse" x1="24.998" y1="75.7715" x2="24.998" y2="49.2773">
		<stop  offset="0" style="stop-color:#FFFFFF"/>
		<stop  offset="0.82" style="stop-color:#8E9BAA"/>
		<stop  offset="0.8924" style="stop-color:#808B98"/>
		<stop  offset="1" style="stop-color:#656D75"/>
	</linearGradient>
	<path style="fill:url(#SVGID_1_);" d="M10.8682,49.2773h5.8926l4.0488,3.8652h7.6719l4.0313-3.8652h6.6162l-0.8359,0.9199
		c-0.1074,0.1172-10.7041,11.9141-11.4512,25.0557l-0.0293,0.5186h-4.3467l-0.0342-0.5137
		c-0.0088-0.1318-1.002-13.4004-10.8047-25.0771L10.8682,49.2773z"/>
</g>
<circle style="opacity:0.1;fill:#0071BE;" cx="24.999" cy="15.2588" r="5.5205"/>
<g style="opacity:0.75;">
	<path style="fill:none;stroke:#0071BE;stroke-width:1.1;stroke-miterlimit:10;" d="M23.6729,23.3555h3.3125
		c0,0,0.8887,13.4316,10.9326,25.3945h-4.4922l-4.0488-3.8652h-8.1133L17.2324,48.75h-5.1523
		C12.0801,48.75,22.9063,36.8535,23.6729,23.3555z"/>
	
		<line style="fill:none;stroke:#0071BE;stroke-width:1.1;stroke-miterlimit:10;" x1="17.7441" y1="40.8535" x2="32.5586" y2="40.8535"/>
	
		<line style="fill:none;stroke:#0071BE;stroke-width:1.1;stroke-miterlimit:10;" x1="20.0527" y1="36.7051" x2="31.0938" y2="36.7051"/>
	
		<line style="fill:none;stroke:#0071BE;stroke-width:1.1;stroke-miterlimit:10;" x1="21.5176" y1="32.5547" x2="29.0039" y2="32.5547"/>
</g>
<circle style="opacity:0.75;fill:none;stroke:#0071BE;stroke-width:1.1;stroke-miterlimit:10;" cx="24.999" cy="15.2588" r="5.5205"/>
<path style="opacity:0.75;fill:#0071BE;" d="M32.6631,9.4692c-0.4395-0.458-0.4258-1.1748,0.0322-1.6152
	c0.4443-0.4287,1.1738-0.4141,1.6025,0.0313c1.9453,2.0117,3.002,4.7402,2.9482,7.5313c-0.0547,2.7871-1.2285,5.4883-3.2393,7.417
	c-0.4453,0.4336-1.1621,0.4199-1.6035-0.0303c-0.4395-0.4521-0.4258-1.1758,0.0322-1.6104
	c1.5869-1.5264,2.5029-3.6182,2.5459-5.8193C35.0244,13.1646,34.1904,11.0571,32.6631,9.4692L32.6631,9.4692z M36.2168,6.0493
	c-0.4395-0.457-0.4248-1.1738,0.0313-1.6084c0.4463-0.4336,1.1631-0.4204,1.6025,0.0322c2.8477,2.9531,4.4072,6.9434,4.3271,11.0391
	c-0.0791,4.0986-1.8037,8.0234-4.7529,10.8647c-0.4453,0.4346-1.1631,0.4199-1.6016-0.0244
	c-0.4287-0.4478-0.4258-1.1704,0.0313-1.604c2.5137-2.4297,3.9805-5.7764,4.0479-9.2793
	C39.9707,11.9536,38.6455,8.5806,36.2168,6.0493L36.2168,6.0493z M39.7598,2.6318c-0.4287-0.457-0.415-1.1748,0.043-1.6021
	c0.457-0.4351,1.1621-0.416,1.6025,0.0303c3.748,3.9028,5.7988,9.1396,5.6934,14.5479c-0.1045,5.4102-2.3584,10.5747-6.2559,14.3286
	c-0.457,0.4297-1.1738,0.415-1.6143-0.0313c-0.4277-0.457-0.4141-1.1738,0.0322-1.6094c3.4863-3.3462,5.4805-7.9058,5.5742-12.731
	C44.9287,10.7388,43.1123,6.106,39.7598,2.6318L39.7598,2.6318z"/>
<path style="opacity:0.75;fill:#0071BE;" d="M17.3369,9.4697c-1.5273,1.5879-2.3613,3.6953-2.3184,5.9043
	c0.043,2.2012,0.959,4.293,2.5459,5.8193c0.458,0.4346,0.4717,1.1582,0.0322,1.6104c-0.4414,0.4502-1.1582,0.4639-1.6035,0.0303
	c-2.0107-1.9287-3.1846-4.6299-3.2393-7.417c-0.0537-2.791,1.0029-5.5195,2.9482-7.5313c0.4287-0.4453,1.1582-0.46,1.6025-0.0313
	C17.7627,8.2949,17.7764,9.0117,17.3369,9.4697L17.3369,9.4697z M13.7832,6.0498c-2.4287,2.5313-3.7539,5.9043-3.6855,9.4199
	c0.0674,3.5029,1.5342,6.8496,4.0479,9.2793c0.457,0.4336,0.46,1.1563,0.0313,1.6045c-0.4385,0.4434-1.1563,0.459-1.6016,0.0234
	c-2.9492-2.8408-4.6738-6.7656-4.7529-10.8643C7.7422,11.417,9.3018,7.4268,12.1494,4.4736
	c0.4395-0.4531,1.1563-0.4658,1.6025-0.0322C14.208,4.876,14.2227,5.5928,13.7832,6.0498L13.7832,6.0498z M10.2402,2.6318
	C6.8877,6.1064,5.0713,10.7393,5.165,15.5654c0.0938,4.8252,2.0879,9.3848,5.5742,12.7314c0.4463,0.4355,0.46,1.1523,0.0322,1.6094
	c-0.4404,0.4453-1.1572,0.4609-1.6143,0.0313c-3.8975-3.7539-6.1514-8.9189-6.2559-14.3291
	C2.7959,10.2002,4.8467,4.9639,8.5947,1.0605c0.4404-0.4463,1.1455-0.4658,1.6025-0.0303
	C10.6553,1.458,10.6689,2.1748,10.2402,2.6318L10.2402,2.6318z"/>
</svg>
