<?xml version="1.0" encoding="utf-8"?>
<!-- Generator: Adobe Illustrator 16.0.3, SVG Export Plug-In . SVG Version: 6.00 Build 0)  -->
<!DOCTYPE svg PUBLIC "-//W3C//DTD SVG 1.1//EN" "http://www.w3.org/Graphics/SVG/1.1/DTD/svg11.dtd">
<svg version="1.1" id="圖層_1" xmlns="http://www.w3.org/2000/svg" xmlns:xlink="http://www.w3.org/1999/xlink" x="0px" y="0px"
	 width="50px" height="70px" viewBox="0 0 50 70" style="enable-background:new 0 0 50 70;" xml:space="preserve">
<g style="opacity:0.18;">
	<linearGradient id="SVGID_1_" gradientUnits="userSpaceOnUse" x1="18.3843" y1="67.0625" x2="18.3843" y2="48.9912">
		<stop  offset="0" style="stop-color:#FFFFFF"/>
		<stop  offset="0.82" style="stop-color:#8E9BAA"/>
		<stop  offset="0.8924" style="stop-color:#808B98"/>
		<stop  offset="1" style="stop-color:#656D75"/>
	</linearGradient>
	<path style="fill:url(#SVGID_1_);" d="M35.5313,58.1113l-2.2188,8.9512L0,67.0156l1.7734-4.2188l1.7969-3.5127l1.8477-3.7734
		l1.6724-3.4092l0.6074-1.0957c0.9902-2.2334,3.1445-2.0088,3.5664-2.0088l7.502,0.0781L21.5,49.125h3.0835
		c2.0278,0,4.9585-0.0557,7.686,0.0596c1.0977,0.0459,3.373,0.2988,4.1367,1.6279c0.7188,1.25,0.1494,2.9316,0.1123,3.0205
		L35.5313,58.1113z"/>
</g>
<path style="opacity:0.75;fill:none;stroke:#0071BE;stroke-width:1.1;stroke-miterlimit:10;" d="M6.3906,28.7988l-1.4873,3.0146
	c0,0-1.2471,2.291,1.4873,3.0557l3.8613,1.2871c0,0-0.8848,0.9648-0.4238,1.6885l-0.2598,0.4023l0.6836,0.3623l-0.7441,2.1729
	c0,0,0.8242,0.6836,2.0703,0.9043l1.2666-1.9512l0.583,0.3418l0.584-1.0459c0,0,1.4678,1.207,2.3311,1.5088
	c0,0,0.6436,0.3018,1.2266-0.3418s0.7842-1.0859,0.7842-1.0859l1.6074,0.5625l0.1816,0.0605l-1.2598,3.0566l-0.375-0.1201
	l-1.3936,3.6055c0,0-0.1475,0.6152,0.4951,1.0576l3.123,1.3535c0,0,0.6445,0.2695,1.2324-0.3223l1.5293-3.5654l-0.2949-0.2129
	l1.502-3.3242l0.6152,0.1611c0,0-0.5898,0.75-0.5625,1.7959l-0.1338,0.4824l0.6963,0.3223l-0.6963,2.5459
	c0,0,0.7236,0.6172,2.3057,0.9912l1.2598-2.3848l0.75,0.2949l1.2061-2.4678l2.8975,0.7529c0,0,0.8828,0.3994,1.5547-1.2607
	l10.7754-30.5068c0,0,0.377-1.0195-0.9102-2.9492c0,0-0.5371-0.8047-0.1094-1.6074l0.3506-1.3682c0,0,0.75-1.7705-1.8506-2.1982
	c-2.6006-0.4297-9.7314-0.377-9.7314-0.377s-1.2861-2.707-2.7344-2.1699c0,0-1.0459,0.6973-0.374,1.4473
	c0,0-0.3496,0.1875-0.6191,0.5898l-7.7197-0.0801c0,0-2.1709-0.1074-3.1357,2.0645l-0.6982,1.2598c0,0-0.9912,0.4551-1.2324,0.2676
	c0,0-0.2949-0.7764-1.3135-0.1875c0,0-0.8047,0.752-0.1875,1.2598l1.2061,1.582L8.1074,25.4473c0,0-0.4297,1.0186-1.9844,0.2422
	c0,0-0.6709-0.7246-1.3398,0.4004c0,0-0.5635,0.75,0.1865,1.2598l1.3945,1.1533C6.3643,28.5029,6.459,28.6084,6.3906,28.7988z"/>
<path style="opacity:0.1;fill:#0071BE;" d="M9.1816,28.2295L7.918,30.792c0,0-1.0605,1.9473,1.2637,2.5967l3.2832,1.0947
	c0,0-0.752,0.8193-0.3613,1.4346l-0.2207,0.3418l0.582,0.3086L11.832,38.415c0,0,0.6992,0.5811,1.7598,0.7686l1.0762-1.6582
	l0.4961,0.29l0.4961-0.8887c0,0,1.248,1.0264,1.9805,1.2822c0,0,0.5469,0.2568,1.043-0.29s0.666-0.9229,0.666-0.9229l1.3672,0.4775
	l0.1543,0.0518l-1.0703,2.5977l-0.3184-0.1016l-1.1855,3.0645c0,0-0.125,0.5225,0.4219,0.8984l2.6543,1.1504
	c0,0,0.5469,0.2295,1.0469-0.2734l1.3008-3.0313l-0.252-0.1807l1.2773-2.8252l0.5234,0.1367c0,0-0.502,0.6377-0.4785,1.5264
	l-0.1133,0.4102l0.5918,0.2744l-0.5918,2.1641c0,0,0.6152,0.5244,1.959,0.8418l1.0713-2.0273l0.6377,0.252l1.0254-2.0977
	l2.4629,0.6387c0,0,0.75,0.3398,1.3203-1.0703l9.1602-25.9316c0,0,0.3203-0.8652-0.7734-2.5059c0,0-0.457-0.6836-0.0938-1.3672
	l0.2988-1.1621c0,0,0.6367-1.5049-1.5742-1.8682c-2.21-0.3652-8.2715-0.3213-8.2715-0.3213S30.8076,4.416,29.5762,4.873
	c0,0-0.8887,0.5918-0.3184,1.2295c0,0-0.2969,0.1592-0.5254,0.501l-6.5625-0.0684c0,0-1.8457-0.0898-2.666,1.7559l-0.5918,1.0703
	c0,0-0.8438,0.3867-1.0488,0.2285c0,0-0.25-0.6602-1.1152-0.1602c0,0-0.6855,0.6387-0.1602,1.0703l1.0254,1.3447l-6.9727,13.5361
	c0,0-0.3652,0.8652-1.6855,0.2051c0,0-0.5703-0.6152-1.1387,0.3408c0,0-0.4805,0.6377,0.1582,1.0703l1.1855,0.9805
	C9.1602,27.9775,9.2402,28.0674,9.1816,28.2295z"/>
</svg>
